<svg xmlns="http://www.w3.org/2000/svg" version="1.0" width="2664.000000pt" height="1568.000000pt" viewBox="0 0 2664.000000 1568.000000" preserveAspectRatio="xMidYMid meet">
<defs>
    <linearGradient id="grad1" x1="0%" y1="0%" x2="100%" y2="0%">
      <stop offset="0%" style="stop-color:rgb(0,48,78);stop-opacity:1"/>
      <stop offset="100%" style="stop-color:rgb(7,112,171);stop-opacity:1"/>
    </linearGradient>
</defs>
          
<g transform="translate(0.000000,1568.000000) scale(0.100000,-0.100000)" fill="url(#grad1)" stroke="none">
<path d="M21058 14491 c-20 -4 -43 -13 -50 -19 -8 -6 -24 -9 -36 -5 -19 4 -22 1 -22 -21 0 -16 11 -38 26 -53 23 -23 31 -25 92 -21 56 3 78 10 134 43 37 22 67 46 68 53 1 29 -116 41 -212 23z"/>
<path d="M20725 14466 c-38 -6 -75 -15 -81 -18 -7 -5 -3 -44 14 -125 13 -65 25 -119 26 -121 6 -5 134 64 132 72 -1 4 -18 14 -39 21 -44 15 -67 32 -67 51 0 26 22 26 49 0 39 -37 92 -45 120 -17 22 22 27 61 11 91 -10 19 -71 61 -86 59 -5 -1 -40 -6 -79 -13z"/>
<path d="M20582 14434 l-24 -16 33 -34 c33 -34 34 -60 2 -32 -25 21 -65 27 -120 17 -71 -14 -83 -30 -83 -110 l0 -67 68 -21 c37 -11 84 -32 104 -46 20 -14 42 -25 47 -25 16 0 33 40 28 66 -2 13 1 24 8 26 8 2 5 35 -12 123 -13 66 -24 123 -26 128 -1 4 -13 0 -25 -9z"/>
<path d="M23115 14290 c-44 -14 -94 -34 -112 -43 -18 -10 -54 -17 -80 -17 -52 0 -113 -29 -113 -54 0 -8 20 -26 44 -40 24 -14 56 -40 70 -57 29 -34 35 -84 11 -93 -17 -6 -85 18 -165 59 -62 32 -91 33 -87 4 2 -19 -8 -24 -101 -45 -123 -28 -181 -57 -202 -101 -8 -18 -17 -33 -20 -33 -4 0 -33 21 -65 48 -39 31 -68 64 -83 94 l-22 48 -78 -6 c-42 -3 -84 -8 -92 -11 -8 -4 -23 -5 -33 -4 -42 5 -207 -109 -207 -144 0 -11 -9 -10 -47 2 -27 8 -74 13 -105 11 -31 -2 -60 0 -64 5 -4 4 -26 8 -48 8 -23 1 -33 3 -23 6 53 14 -21 73 -91 73 -76 0 -92 -21 -107 -142 -4 -27 -10 -48 -15 -48 -13 0 -22 33 -10 40 6 4 10 22 8 41 -5 57 -36 65 -198 51 -203 -18 -258 -38 -217 -80 15 -14 14 -17 -13 -34 -24 -14 -30 -25 -30 -53 0 -28 4 -35 19 -35 11 0 23 5 26 10 11 18 22 10 18 -13 -3 -14 2 -29 11 -36 9 -8 16 -19 16 -26 0 -7 7 -15 15 -19 10 -4 14 -20 14 -56 -1 -27 -5 -50 -10 -50 -5 0 -11 -11 -15 -25 -3 -14 -9 -25 -13 -25 -4 0 -17 -9 -29 -21 -12 -11 -27 -17 -32 -14 -16 10 -21 39 65 -400 24 -121 45 -231 48 -245 58 -299 66 -328 90 -332 11 -2 28 -16 37 -33 18 -32 13 -64 -16 -97 -14 -14 -13 -27 6 -115 11 -54 25 -120 30 -148 5 -27 16 -84 24 -125 20 -93 116 -560 126 -615 4 -22 27 -132 50 -245 23 -113 43 -217 45 -231 2 -14 10 -53 18 -85 8 -32 20 -88 27 -124 6 -36 16 -83 21 -105 5 -22 21 -98 35 -170 30 -147 40 -179 54 -170 13 8 67 -21 79 -42 8 -15 15 -16 63 -5 29 6 60 14 68 16 8 3 69 20 135 39 135 39 283 80 395 108 41 11 83 21 93 24 9 3 25 7 35 10 9 2 42 11 72 20 30 9 62 17 70 19 8 1 28 29 44 62 23 46 29 73 30 121 0 56 -6 74 -58 177 -49 100 -58 127 -67 202 -5 48 -18 107 -29 131 -10 24 -17 43 -15 43 2 0 17 -24 35 -52 17 -29 52 -71 77 -94 45 -40 46 -43 52 -116 5 -62 11 -80 34 -108 33 -39 73 -116 112 -218 l29 -74 35 7 c52 10 54 13 26 47 -52 62 -114 211 -101 244 7 18 46 4 97 -37 22 -17 44 -29 50 -27 18 6 -58 95 -91 107 -25 8 -37 24 -60 75 -16 35 -56 97 -88 137 -74 93 -92 127 -92 180 0 38 -6 48 -69 112 -48 49 -73 68 -85 64 -23 -9 -20 -56 5 -83 19 -20 20 -27 10 -52 -10 -24 -10 -36 2 -65 l15 -35 -29 16 c-16 10 -31 29 -34 43 -9 41 -112 129 -151 129 -27 0 -74 -40 -74 -63 0 -12 -4 -28 -9 -36 -13 -20 -41 -5 -41 22 0 28 -17 47 -42 47 -14 0 -18 -8 -18 -32 l-1 -33 -17 35 c-16 32 -21 35 -65 38 -26 2 -47 5 -47 7 0 2 14 34 31 72 46 103 108 325 124 446 8 60 22 123 31 142 28 60 79 80 168 65 65 -10 82 -7 89 21 4 16 14 19 66 19 50 0 63 3 67 18 27 82 33 86 119 77 61 -7 61 -7 57 -36 -4 -29 -3 -29 43 -29 43 0 51 4 86 42 21 23 57 49 81 58 35 12 44 21 46 43 3 21 -2 29 -23 37 -14 5 -38 10 -51 10 -24 0 -25 2 -20 43 3 23 11 85 17 137 13 107 25 138 77 192 27 29 39 35 49 27 9 -9 14 -7 19 5 5 12 13 1 30 -40 27 -67 80 -126 109 -122 16 2 22 15 31 59 22 109 22 109 54 109 36 0 39 21 10 65 -41 63 -14 135 52 135 33 0 32 -6 -4 -24 -32 -16 -33 -44 -3 -101 15 -27 29 -69 32 -95 5 -42 3 -48 -21 -63 -43 -29 -57 -70 -65 -195 -7 -97 -14 -131 -40 -195 -17 -43 -31 -87 -31 -98 0 -11 -12 -31 -26 -44 l-26 -24 23 -30 c20 -27 23 -42 21 -105 -3 -93 9 -128 88 -248 l65 -98 63 0 c45 0 64 -4 68 -14 3 -8 18 -18 34 -21 25 -6 28 -11 35 -61 3 -30 11 -52 16 -49 5 4 9 2 9 -4 0 -5 -5 -11 -10 -13 -6 -2 -13 -16 -16 -32 -3 -16 -12 -35 -21 -41 -10 -7 -13 -19 -9 -31 9 -31 103 -130 112 -121 5 5 9 115 9 245 1 141 5 237 10 239 78 27 84 74 27 186 -43 83 -42 111 2 82 37 -25 53 -8 32 33 -9 17 -21 34 -27 37 -5 4 -24 25 -40 47 -16 23 -29 34 -29 25 0 -10 -11 -17 -32 -19 -20 -2 -32 -8 -30 -15 1 -10 -17 -13 -65 -13 -47 0 -63 3 -53 10 12 7 8 11 -17 16 -18 4 -33 13 -33 20 0 8 -7 14 -15 14 -15 0 -20 29 -18 110 2 65 3 70 18 70 8 0 15 7 15 15 0 8 9 15 20 15 11 0 20 7 20 15 0 9 9 15 21 15 14 0 19 5 16 14 -8 21 -22 138 -18 156 6 28 25 29 60 3 32 -25 35 -25 47 -8 7 10 16 38 20 64 9 63 23 87 24 41 1 -36 19 -70 37 -70 6 0 20 26 32 58 11 33 30 67 41 77 27 25 72 21 117 -9 21 -14 42 -26 48 -26 6 0 11 23 11 53 1 41 12 77 46 153 25 54 57 138 72 186 18 60 35 96 54 113 32 30 118 75 144 75 28 0 22 43 -9 74 -14 15 -53 34 -84 44 -49 14 -59 21 -61 42 -2 14 -12 29 -25 35 -12 5 -25 20 -28 32 -7 28 -52 53 -64 35 -10 -16 -90 -12 -84 5 3 7 19 13 36 13 119 0 144 80 75 242 -15 37 -28 74 -28 82 0 31 30 15 46 -23 11 -29 27 -45 60 -62 l45 -24 34 40 34 40 53 -51 c77 -75 116 -89 132 -48 5 13 9 12 27 -4 28 -27 66 -33 111 -19 36 11 38 13 31 47 -3 19 -28 62 -55 97 l-49 62 47 3 46 3 0 81 c1 45 -2 86 -6 92 -10 17 -96 42 -166 48 -38 3 -94 0 -135 -8 l-71 -14 -27 27 c-19 19 -40 29 -74 32 -92 11 -168 26 -231 46 -35 12 -76 21 -91 21 -16 0 -36 9 -47 21 -44 48 -84 59 -221 58 -111 -1 -139 -5 -208 -29z m944 -241 c11 -21 16 -39 11 -39 -12 0 -26 21 -38 58 -15 44 3 32 27 -19z"/>
<path d="M17850 14221 c-51 -16 -88 -41 -125 -86 -22 -28 -34 -50 -29 -55 19 -19 108 -13 144 8 l36 22 -4 -35 c-2 -19 -10 -35 -16 -35 -15 0 -56 -37 -56 -50 0 -6 24 -10 53 -10 40 0 58 5 71 19 14 16 23 17 60 9 24 -5 74 -8 112 -6 67 3 69 4 66 28 -2 14 -3 42 -3 63 1 44 -20 92 -44 101 -44 17 -85 -1 -85 -36 0 -13 -8 -18 -30 -18 -17 0 -42 -7 -55 -16 -13 -9 -32 -14 -41 -12 -12 2 -3 13 30 36 25 18 46 40 46 47 0 30 -70 44 -130 26z"/>
<path d="M8852 14188 c-16 -16 -15 -41 0 -56 7 -7 -12 1 -42 17 -77 42 -128 49 -184 22 -58 -27 -65 -40 -27 -47 34 -7 37 -14 19 -44 -16 -25 -3 -35 56 -44 69 -11 80 -28 14 -21 -62 7 -71 -2 -48 -46 14 -26 50 -24 109 5 l48 25 -5 -25 c-5 -26 3 -29 42 -14 20 7 24 6 20 -4 -7 -18 75 -95 102 -96 41 0 144 42 164 68 25 31 35 22 45 -35 l7 -43 -56 0 c-31 0 -56 -4 -56 -9 0 -5 -20 -12 -44 -15 -48 -8 -72 -27 -62 -51 8 -22 -6 -12 -84 55 -74 65 -93 74 -121 60 -28 -15 -24 -60 10 -105 24 -33 27 -42 17 -59 -6 -12 -12 -22 -13 -24 0 -2 -19 6 -42 17 -81 42 -151 20 -151 -47 0 -39 22 -52 86 -52 44 0 46 -1 32 -17 -46 -52 -25 -86 49 -82 46 3 48 2 51 -25 3 -27 2 -28 -25 -22 -15 4 -52 19 -82 34 -44 22 -57 34 -65 62 -10 32 -14 35 -55 38 -60 4 -91 -5 -91 -27 0 -9 11 -24 25 -31 36 -19 18 -31 -56 -37 -36 -3 -72 -12 -81 -21 -22 -19 -24 -52 -3 -52 8 0 15 -3 15 -8 0 -4 12 -12 28 -19 118 -49 174 -67 217 -69 118 -7 136 -12 164 -38 15 -14 32 -26 38 -26 6 0 17 -7 24 -16 10 -12 25 -15 56 -11 89 10 99 59 26 125 -27 24 -38 38 -26 33 36 -18 59 -13 108 24 44 34 48 35 80 24 29 -11 39 -10 68 5 57 31 66 42 69 76 3 30 0 35 -29 43 -17 5 -34 17 -37 26 -3 9 -9 22 -12 29 -5 11 -2 12 12 4 21 -10 193 -14 209 -4 5 4 23 5 38 3 30 -3 67 22 67 46 0 7 9 13 20 13 10 0 23 7 27 15 7 12 14 13 40 3 29 -11 36 -9 95 28 34 22 72 44 83 50 30 16 20 29 -25 32 -22 2 -40 7 -40 11 0 5 53 8 118 8 103 -1 122 1 159 21 54 28 58 36 31 63 -59 56 -107 71 -142 44 -28 -21 -45 -19 -39 4 4 16 -7 26 -56 50 -33 17 -71 31 -84 31 -14 0 -30 7 -37 15 -16 20 -57 19 -68 -1 -7 -13 -13 -10 -30 20 -14 23 -29 36 -43 36 -11 0 -36 7 -54 16 -45 21 -78 15 -85 -15 -5 -22 -6 -22 -19 -7 -29 35 -50 39 -87 17 -19 -12 -51 -21 -70 -21 -27 0 -34 -4 -34 -20 0 -11 -3 -20 -8 -20 -4 0 -47 27 -95 60 -69 47 -97 60 -126 60 -20 0 -42 -5 -49 -12z"/>
<path d="M8349 14170 c-9 -5 -24 -30 -33 -55 -15 -39 -21 -45 -47 -45 -16 0 -32 -6 -35 -14 -3 -8 -16 -17 -30 -20 -24 -6 -32 -30 -14 -41 5 -3 7 -19 4 -34 -8 -38 16 -51 90 -51 31 0 56 -3 56 -7 0 -5 -21 -15 -48 -23 -57 -18 -66 -42 -23 -65 18 -9 31 -23 31 -35 0 -34 98 -87 170 -92 31 -3 35 0 38 22 3 23 7 25 41 22 25 -3 41 1 50 12 8 9 26 16 42 16 57 0 81 57 27 62 -32 3 -33 4 -36 58 -3 59 -15 80 -42 80 -11 0 -36 31 -68 84 -66 108 -128 153 -173 126z"/>
<path d="M18209 14144 c-11 -14 -10 -18 10 -33 17 -13 30 -43 46 -101 12 -46 26 -85 32 -87 5 -2 15 8 21 22 13 27 32 38 100 55 37 10 42 14 42 40 0 20 -11 40 -35 65 -41 40 -76 52 -111 36 -20 -9 -30 -8 -47 4 -27 19 -41 19 -58 -1z"/>
<path d="M20726 14118 c-21 -30 -20 -45 4 -58 44 -23 80 29 44 64 -21 21 -30 20 -48 -6z"/>
<path d="M8042 14098 c-7 -7 -12 -22 -12 -35 0 -19 5 -23 30 -23 32 0 38 16 20 51 -12 22 -21 24 -38 7z"/>
<path d="M20833 14096 c-23 -11 -34 -24 -42 -53 -11 -39 -14 -73 -7 -73 2 0 39 7 82 16 145 28 168 48 106 88 -48 32 -98 40 -139 22z"/>
<path d="M7285 14094 c-11 -3 -30 -7 -42 -10 -45 -9 -22 -20 68 -34 98 -14 124 -9 124 26 0 17 -8 19 -65 21 -36 0 -74 -1 -85 -3z"/>
<path d="M7120 14062 c0 -22 13 -42 27 -42 21 0 12 44 -9 48 -10 2 -18 -1 -18 -6z"/>
<path d="M7683 14050 c-28 -11 -30 -36 -4 -45 10 -3 26 -14 36 -25 18 -20 17 -20 -18 -20 -43 0 -49 -18 -17 -50 15 -15 33 -20 79 -20 80 0 88 -5 112 -61 22 -49 43 -65 74 -53 13 5 16 14 11 43 -4 20 -7 53 -6 74 1 42 -37 87 -74 87 -25 0 -37 8 -52 35 -22 40 -88 56 -141 35z"/>
<path d="M17668 14049 c-23 -13 -23 -25 2 -51 19 -21 21 -21 55 -5 40 19 55 45 34 58 -19 12 -70 11 -91 -2z"/>
<path d="M6725 14014 c-52 -30 -66 -34 -107 -29 -54 6 -78 -10 -78 -53 0 -40 24 -69 57 -70 16 0 53 -10 82 -22 29 -11 61 -18 70 -15 9 2 34 28 56 55 l40 51 5 -32 c3 -18 13 -37 23 -43 15 -9 22 -6 40 15 12 15 31 29 42 31 12 2 21 13 23 26 2 15 10 22 26 22 49 0 63 58 20 86 -22 15 -32 15 -78 5 -37 -8 -61 -9 -80 -1 -45 17 -78 11 -141 -26z"/>
<path d="M7240 14012 c-47 -23 -52 -55 -11 -76 37 -20 72 -20 116 -2 78 33 62 96 -24 96 -25 0 -62 -8 -81 -18z"/>
<path d="M20450 14001 c0 -11 48 -51 61 -51 13 0 11 34 -3 48 -14 14 -58 16 -58 3z"/>
<path d="M18460 13941 c-5 -11 -10 -26 -10 -33 0 -7 -9 -24 -20 -38 -11 -14 -20 -39 -20 -56 0 -37 34 -84 61 -84 22 0 26 -15 5 -23 -7 -3 -35 -8 -62 -12 -108 -14 -110 -16 -64 -69 27 -30 28 -35 13 -41 -10 -4 -40 -9 -68 -11 -27 -2 -60 -6 -72 -9 -16 -4 -23 -1 -23 10 0 25 -17 18 -86 -35 -36 -28 -79 -57 -95 -65 -16 -9 -29 -22 -29 -29 0 -10 -19 -16 -60 -21 -64 -7 -80 -21 -80 -68 0 -15 -10 -31 -25 -41 -41 -27 -57 -60 -50 -100 5 -22 14 -38 26 -41 10 -4 19 -12 19 -19 0 -7 9 -21 20 -31 25 -23 25 -37 0 -66 l-19 -24 -1 38 c0 35 -2 37 -30 37 -24 0 -35 -7 -48 -30 -14 -24 -26 -31 -62 -35 -58 -8 -125 -32 -140 -51 -15 -17 -6 -89 16 -121 8 -13 33 -32 57 -44 23 -12 53 -30 66 -40 13 -11 34 -19 47 -19 29 0 43 -25 80 -148 15 -51 37 -104 50 -117 13 -14 19 -25 13 -25 -36 0 -120 75 -134 120 -4 12 -1 51 5 86 7 36 10 68 6 71 -3 4 -29 0 -56 -9 l-49 -16 -43 33 c-66 50 -163 78 -198 55 -15 -9 -14 -13 25 -91 12 -24 11 -26 -6 -22 -11 3 -22 9 -25 14 -3 5 -21 9 -39 9 -26 0 -39 -6 -51 -25 -36 -55 3 -85 114 -85 77 0 112 -11 112 -36 0 -10 -7 -13 -22 -10 -13 3 -50 8 -83 11 -75 9 -135 32 -144 57 -4 11 -2 46 3 78 8 52 7 62 -9 80 -10 11 -27 20 -37 20 -18 0 -19 -5 -13 -50 6 -45 4 -56 -19 -90 -36 -54 -36 -112 0 -137 70 -49 72 -53 67 -125 l-5 -68 -38 48 c-31 38 -37 53 -33 80 5 28 0 37 -33 68 -38 34 -39 37 -39 102 0 63 -1 67 -32 87 -23 16 -53 24 -109 28 -43 3 -82 3 -87 0 -5 -3 -7 -35 -3 -72 6 -57 3 -72 -16 -111 -13 -25 -33 -49 -45 -55 -32 -14 -29 -53 6 -96 26 -31 27 -37 15 -54 -33 -45 -6 -101 48 -97 27 3 39 -4 66 -31 28 -29 66 -106 58 -115 -2 -1 -23 9 -47 22 -24 13 -70 29 -102 35 -32 6 -85 23 -118 37 -47 21 -66 25 -96 19 -21 -4 -49 -7 -63 -7 -14 0 -35 -9 -48 -21 -20 -18 -23 -30 -20 -76 3 -61 -14 -80 -33 -37 -15 32 -29 32 -97 4 -33 -14 -51 -27 -48 -35 4 -9 -5 -11 -38 -7 -60 9 -88 -8 -84 -49 2 -25 -2 -34 -22 -44 -13 -6 -26 -10 -29 -8 -2 3 2 30 9 60 7 30 10 58 7 61 -3 4 -34 -12 -69 -33 -35 -22 -90 -54 -123 -71 -33 -16 -71 -39 -85 -51 -21 -17 -23 -22 -10 -31 24 -15 52 -12 75 10 46 44 110 28 129 -31 9 -27 19 -37 51 -48 48 -16 102 -31 131 -35 11 -2 26 -6 33 -10 6 -4 25 -9 42 -11 25 -3 36 2 56 25 19 24 33 30 63 30 21 0 46 -3 55 -6 19 -8 45 -55 45 -82 0 -23 55 -50 115 -57 6 -1 21 -5 35 -10 14 -5 30 -9 35 -10 6 -1 17 -4 25 -7 16 -7 68 -21 85 -23 19 -3 71 -17 115 -32 25 -9 54 -17 65 -19 11 -2 36 -8 55 -13 19 -6 62 -17 95 -26 33 -9 74 -20 90 -25 55 -16 150 -41 165 -44 8 -1 26 -6 40 -11 14 -5 30 -9 35 -10 6 0 30 -7 55 -15 25 -8 50 -15 55 -16 16 -2 68 -15 95 -24 55 -18 80 -21 80 -7 0 17 42 57 59 57 6 0 28 -8 49 -18 20 -10 42 -18 47 -18 12 1 189 106 255 150 25 17 47 31 50 31 9 0 84 49 104 67 10 9 22 15 26 13 14 -9 80 63 80 86 0 17 9 28 31 38 28 12 35 12 58 -2 34 -20 52 -56 46 -88 -6 -27 -4 -29 431 -455 67 -66 289 -283 494 -484 340 -333 374 -364 403 -363 47 3 79 -6 74 -20 -2 -7 -1 -21 3 -32 11 -28 -18 -73 -51 -80 -52 -12 -108 55 -77 92 7 9 -23 44 -109 128 -65 64 -287 282 -493 484 -646 634 -714 700 -725 693 -20 -13 -48 -12 -70 2 -19 12 -24 12 -46 -5 -13 -10 -28 -19 -32 -19 -5 0 -21 -8 -35 -19 -15 -10 -43 -28 -62 -39 -19 -11 -69 -41 -110 -66 -41 -26 -84 -52 -95 -58 -89 -53 -144 -95 -140 -107 7 -17 -39 -78 -65 -86 -26 -8 -110 41 -110 65 0 12 -10 20 -32 24 -67 13 -118 26 -138 34 -8 3 -19 6 -25 7 -5 1 -20 4 -32 9 -12 4 -30 9 -40 11 -22 5 -92 24 -113 30 -36 11 -97 26 -115 29 -11 2 -40 10 -65 19 -47 16 -95 29 -120 33 -8 2 -31 7 -50 13 -19 6 -62 17 -95 26 -70 19 -124 34 -145 40 -8 2 -33 9 -55 15 -51 14 -106 29 -125 35 -78 23 -88 23 -114 -2 -15 -13 -40 -25 -55 -25 -41 -1 -93 32 -98 62 -5 38 -12 52 -22 46 -5 -4 -20 -2 -33 3 -13 5 -50 17 -83 26 -33 9 -77 21 -98 27 -32 10 -43 9 -67 -5 -15 -9 -39 -18 -52 -19 -31 -2 -78 30 -78 53 0 30 -96 60 -112 35 -4 -6 -8 -30 -8 -53 0 -42 -1 -43 -32 -43 -37 0 -95 32 -105 56 -7 20 13 34 50 34 20 0 27 5 27 19 0 20 -15 27 -110 55 -125 37 -142 32 -100 -26 27 -37 96 -225 87 -235 -2 -2 -10 3 -17 12 -7 9 -29 15 -52 15 -36 0 -46 -6 -94 -57 -30 -32 -54 -65 -54 -73 0 -8 9 -28 20 -45 11 -16 20 -33 20 -37 0 -4 -18 -12 -40 -18 -36 -10 -45 -8 -83 15 -50 29 -89 32 -108 9 -12 -15 -10 -19 11 -33 14 -9 43 -33 65 -53 34 -32 38 -40 25 -48 -8 -6 -39 -9 -68 -7 -64 5 -95 30 -117 98 -26 78 -95 164 -154 190 -27 13 -47 27 -44 32 2 4 -1 14 -7 22 -17 21 -12 20 97 -24 148 -59 229 -81 295 -81 52 0 63 4 87 28 58 58 48 156 -23 226 -74 72 -210 125 -361 142 -49 5 -63 3 -74 -10 -12 -14 -15 -13 -32 8 -11 13 -19 29 -19 36 0 8 -25 11 -77 10 -43 -1 -84 -1 -90 -1 -20 1 -15 21 9 40 36 30 18 51 -46 51 -39 0 -55 4 -60 15 -6 17 -71 21 -81 5 -3 -5 -12 -7 -20 -3 -9 3 -22 0 -30 -7 -10 -9 -15 -9 -15 -1 0 6 -17 11 -39 11 -33 0 -40 -4 -43 -22 -2 -15 -11 -24 -26 -26 -17 -3 -22 -8 -17 -20 4 -9 7 -19 8 -22 4 -12 -20 -5 -53 14 -29 18 -32 21 -15 24 22 4 55 30 55 44 0 12 -45 10 -75 -4 -14 -6 -25 -17 -25 -24 0 -8 -11 -16 -25 -20 -27 -7 -32 -23 -13 -42 6 -6 10 -13 7 -14 -2 -2 -18 -13 -36 -26 -32 -22 -32 -22 -43 -2 -20 37 -63 19 -85 -35 -7 -18 -9 -18 -12 -2 -5 18 -33 24 -33 7 0 -5 -13 -10 -30 -10 -56 0 -35 -23 108 -121 50 -35 116 -81 145 -102 28 -20 77 -53 107 -73 30 -20 57 -40 60 -44 3 -3 38 -29 79 -56 41 -27 95 -64 120 -81 25 -18 69 -48 96 -68 28 -19 71 -50 96 -67 25 -18 73 -51 105 -74 32 -23 86 -60 119 -83 33 -23 76 -53 95 -66 19 -13 51 -36 70 -50 63 -47 167 -120 196 -138 16 -9 54 -35 84 -57 60 -44 120 -86 220 -155 36 -25 88 -61 115 -80 28 -20 79 -56 115 -80 36 -25 90 -63 120 -85 30 -22 69 -48 85 -59 17 -11 46 -31 65 -46 50 -37 164 -117 197 -138 15 -9 51 -34 79 -55 28 -20 79 -56 113 -79 33 -24 89 -62 122 -85 34 -24 85 -60 113 -80 28 -21 64 -46 80 -55 16 -10 42 -29 59 -43 17 -14 52 -38 77 -55 60 -38 136 -90 225 -154 39 -28 93 -66 120 -86 28 -19 71 -49 96 -67 26 -18 74 -52 108 -75 34 -24 88 -62 122 -85 34 -24 82 -58 108 -76 25 -18 75 -53 111 -77 36 -25 88 -61 115 -80 28 -20 73 -51 100 -71 28 -19 84 -59 125 -89 41 -29 92 -63 112 -74 20 -12 39 -25 43 -31 8 -12 112 -80 123 -80 5 0 23 16 42 35 19 20 53 41 75 47 22 7 43 16 46 20 3 5 18 4 32 -1 17 -7 28 -7 32 -1 4 6 21 -1 39 -15 18 -14 38 -25 43 -25 6 0 25 -16 42 -36 17 -19 37 -34 44 -32 7 2 64 32 127 68 63 36 118 64 122 63 5 -2 8 1 8 6 0 5 8 11 18 15 9 3 24 10 32 15 46 30 389 219 408 225 12 4 22 12 22 17 0 5 6 9 14 9 7 0 19 7 26 15 7 9 15 14 17 11 2 -2 59 28 126 66 210 121 229 132 237 133 17 4 60 29 60 36 0 4 10 11 23 15 12 4 78 39 147 79 69 39 150 84 180 100 30 16 148 82 262 147 114 65 209 118 213 118 5 0 84 44 180 100 17 10 57 33 90 52 99 57 103 60 98 79 -8 28 6 89 20 89 7 0 21 10 31 22 19 22 19 24 -4 133 -12 60 -26 128 -30 150 -4 22 -19 96 -34 165 -69 333 -138 670 -146 715 -9 55 -44 225 -60 295 -6 25 -12 56 -15 70 -20 108 -48 255 -60 305 -14 61 -24 110 -46 224 -11 56 -16 66 -46 83 -44 27 -51 89 -11 119 11 9 18 20 15 25 -4 8 -34 145 -50 234 -14 77 -118 592 -127 628 -5 23 -10 53 -10 67 0 20 -11 30 -58 54 -58 29 -80 47 -81 66 -1 15 -70 18 -87 4 -12 -10 -22 -4 -54 31 -25 27 -45 40 -55 37 -20 -8 -19 -26 4 -84 30 -77 35 -112 17 -119 -25 -10 -165 63 -176 92 -5 13 -11 24 -12 25 -2 0 -49 3 -105 5 -101 4 -103 4 -103 -18 0 -20 -1 -21 -16 -6 -19 18 -11 39 30 77 22 20 26 22 26 7 0 -34 83 -47 125 -20 32 21 36 74 6 74 -10 0 -21 7 -25 15 -7 18 -46 20 -46 3 0 -7 -12 -19 -27 -26 -20 -9 -24 -9 -15 0 20 20 14 65 -10 82 -31 22 -65 20 -135 -9 -59 -23 -63 -24 -107 -9 -66 23 -91 17 -92 -23 0 -17 -6 -39 -14 -48 -12 -14 -10 -19 15 -39 l28 -22 -49 -21 c-128 -54 -184 -62 -184 -28 0 25 -66 18 -175 -18 -98 -33 -100 -35 -105 -68 l-6 -34 -7 34 c-9 43 -30 77 -57 91 -17 9 -22 7 -30 -15 -8 -21 -14 -24 -35 -19 -64 16 -135 -22 -135 -72 0 -24 3 -26 32 -20 46 9 33 2 -59 -33 -90 -35 -100 -43 -105 -85 -2 -22 -10 -32 -31 -39 -16 -5 -29 -7 -31 -6 -1 2 -1 25 2 52 3 40 8 50 33 62 16 9 80 66 142 128 120 117 146 160 132 215 -10 39 -24 52 -56 52 -38 0 -45 16 -11 25 15 3 37 13 50 21 49 32 10 88 -63 89 -25 0 -51 7 -61 16 -36 30 -45 30 -174 -7 -103 -29 -138 -44 -170 -71 -30 -26 -40 -30 -40 -18 0 10 -16 23 -40 32 -22 9 -40 22 -40 30 0 7 -11 31 -25 53 -28 45 -67 54 -85 21z m-746 -1584 c37 -25 55 -72 44 -117 -11 -43 -34 -63 -92 -79 -33 -9 -42 -7 -68 12 -47 34 -61 69 -48 118 21 77 99 108 164 66z m-556 -1488 c-2 -7 11 -16 28 -20 28 -8 33 -14 38 -54 5 -29 12 -45 22 -45 8 0 14 -9 14 -20 0 -11 -6 -19 -12 -17 -8 1 -16 -17 -22 -45 -8 -40 -13 -48 -37 -53 -15 -3 -30 -13 -33 -21 -4 -10 -22 -14 -66 -14 -44 0 -62 4 -66 14 -3 8 -19 18 -35 21 -25 6 -29 11 -29 40 0 23 -8 41 -22 55 -22 21 -22 22 -5 35 11 7 21 31 24 54 5 37 9 41 40 47 23 4 33 11 29 20 -4 11 9 14 64 14 47 0 69 -4 68 -11z m1792 -311 c0 -6 7 -19 16 -29 14 -16 14 -21 -1 -53 -10 -20 -31 -46 -46 -57 l-29 -21 -45 27 c-43 24 -45 28 -45 70 0 54 36 101 69 90 13 -4 21 -2 21 5 0 6 11 5 30 -5 17 -9 30 -21 30 -27z m522 -328 c3 -23 1 -30 -12 -30 -10 0 -17 10 -18 30 -2 20 2 30 12 30 8 0 16 -13 18 -30z"/>
<path d="M4017 13901 c-11 -29 -11 -29 -50 -15 -91 32 -211 11 -262 -46 -63 -72 -137 -97 -199 -69 -21 10 -31 8 -69 -17 -25 -16 -53 -34 -63 -40 -17 -10 -17 -12 4 -46 21 -33 72 -192 72 -223 0 -8 12 -21 28 -29 16 -9 21 -15 11 -16 -9 0 -21 -12 -28 -26 -10 -22 -9 -30 5 -45 16 -18 16 -18 -30 -3 -51 18 -64 30 -47 47 42 42 -27 48 -159 16 -47 -12 -109 -21 -137 -21 -43 -1 -53 -4 -53 -18 0 -10 7 -23 16 -31 12 -10 14 -23 9 -56 -7 -48 16 -134 43 -166 26 -30 117 -50 194 -44 l69 6 -28 -52 c-37 -67 -68 -83 -183 -96 -209 -23 -364 -154 -330 -280 8 -30 16 -41 30 -41 25 0 32 -13 22 -41 l-9 -23 -12 22 c-15 28 -52 29 -76 2 -39 -43 4 -160 60 -160 11 0 31 7 43 16 22 15 23 15 16 -13 -4 -15 -15 -52 -26 -82 -29 -85 -26 -91 56 -160 41 -33 79 -61 85 -61 6 0 18 14 26 30 15 30 16 30 39 13 28 -21 27 -22 -38 -110 -51 -70 -89 -94 -191 -119 -41 -10 -84 -30 -110 -50 -62 -47 -69 -50 -190 -74 -109 -21 -275 -87 -275 -109 0 -21 22 -19 170 14 84 19 200 41 259 49 106 15 171 35 202 63 10 8 52 27 94 43 42 16 94 40 114 54 39 26 189 88 259 106 51 13 60 30 42 78 -12 34 -11 36 20 61 46 36 176 128 255 179 l67 42 351 0 352 -1 11 463 c6 255 11 464 12 466 13 21 123 129 126 124 2 -4 2 -274 -1 -600 l-6 -592 -25 -7 c-14 -3 -171 -3 -349 1 -321 7 -324 7 -311 -13 6 -11 15 -18 19 -15 16 9 77 -57 83 -89 12 -62 91 -111 211 -130 47 -7 75 -16 75 -24 0 -32 45 -126 79 -164 l38 -43 -20 -34 c-16 -27 -18 -38 -9 -58 13 -28 52 -33 52 -7 0 15 1 15 14 -2 17 -23 46 -13 46 17 0 17 3 19 12 10 7 -7 12 -37 12 -68 0 -42 -4 -58 -17 -65 -11 -7 -17 -22 -17 -45 0 -31 3 -35 20 -29 25 8 63 -11 40 -19 -12 -5 -15 -28 -16 -111 -1 -66 -6 -111 -14 -120 -7 -8 -10 -26 -6 -39 3 -14 2 -28 -4 -31 -13 -8 -13 -35 0 -35 6 0 10 7 10 15 0 8 7 15 16 15 13 0 15 -7 9 -37 -3 -21 -11 -42 -16 -47 -12 -13 -12 -56 1 -56 6 0 10 9 10 19 0 17 3 18 24 8 20 -9 23 -17 19 -38 -3 -15 0 -50 6 -79 9 -44 9 -54 -5 -67 -15 -15 -15 -18 2 -30 16 -12 17 -18 6 -58 -16 -59 -15 -125 1 -129 6 -3 25 -7 41 -11 16 -3 30 -14 33 -25 3 -11 12 -20 19 -20 8 0 14 -9 14 -21 0 -12 8 -23 20 -26 13 -3 20 -14 20 -29 0 -30 -17 -40 -25 -14 -4 12 -39 45 -79 74 -39 29 -77 61 -85 70 -12 15 -51 23 -51 11 0 -15 31 -62 54 -84 14 -14 26 -33 26 -43 0 -16 60 -139 80 -163 6 -7 2 -15 -9 -22 -44 -27 -68 -153 -40 -206 9 -17 9 -22 -2 -26 -25 -8 -78 -71 -115 -138 -57 -101 -182 -422 -193 -494 -31 -201 -25 -265 28 -313 l21 -19 -22 -24 -22 -23 32 -113 c18 -61 32 -117 32 -122 0 -10 21 -26 178 -137 37 -26 81 -58 97 -71 17 -13 41 -30 54 -37 13 -6 44 -27 68 -46 39 -30 49 -33 84 -28 25 4 49 2 63 -6 19 -10 29 -9 55 4 17 9 33 17 36 17 2 0 57 29 121 65 65 35 120 64 124 64 4 0 53 44 109 99 142 138 126 130 166 91 l34 -33 40 26 c22 15 45 27 50 27 4 0 57 27 117 61 60 33 113 61 118 62 5 1 55 27 110 57 56 31 148 80 206 109 119 60 229 117 280 146 19 10 37 20 40 20 3 0 16 7 30 14 68 38 157 85 270 143 164 86 301 158 314 166 6 3 16 7 21 8 6 1 58 29 118 62 59 33 107 59 107 57 0 -2 33 14 72 37 40 22 86 47 103 55 16 7 37 17 45 22 8 4 26 14 40 21 14 8 51 29 83 47 33 18 62 33 66 33 4 0 60 29 124 64 65 36 117 63 117 60 0 -2 18 7 40 21 22 14 42 25 44 25 2 0 32 16 66 35 34 19 67 35 73 36 7 0 28 10 47 23 32 21 35 27 36 74 1 79 46 127 126 137 33 4 103 -26 111 -47 4 -13 94 29 160 74 15 11 27 16 27 12 0 -3 6 -2 13 4 6 5 37 23 67 39 30 16 71 39 90 50 59 33 85 47 90 48 16 2 133 71 137 81 6 15 -24 74 -37 74 -6 0 -10 37 -10 88 0 98 -14 160 -37 169 -11 4 -46 -26 -117 -100 -55 -59 -106 -107 -113 -107 -6 0 -33 18 -58 40 -25 22 -55 40 -66 40 -10 0 -19 3 -19 8 0 21 43 159 58 184 16 27 16 28 -20 60 -19 18 -48 58 -63 88 -46 94 -92 128 -134 101 -9 -6 -40 4 -92 30 -43 22 -85 39 -94 39 -22 0 -55 -41 -55 -69 0 -14 -6 -38 -14 -53 -8 -15 -22 -53 -31 -85 -23 -81 -56 -134 -116 -186 l-52 -45 32 -40 c36 -46 61 -101 61 -135 0 -41 -40 -142 -71 -180 -38 -46 -95 -76 -158 -84 l-48 -5 -6 -92 c-10 -152 -45 -236 -96 -236 -16 0 -34 -7 -41 -15 -11 -13 -16 -11 -41 16 -23 24 -26 35 -19 54 5 14 5 37 -2 59 -10 31 -8 45 9 89 12 28 24 75 28 102 3 28 9 60 12 73 4 18 -1 25 -31 37 -19 8 -56 15 -81 15 -47 0 -46 0 -105 71 -17 20 -44 42 -60 49 -21 9 -33 22 -37 41 -11 59 -98 117 -188 126 l-52 5 9 45 c19 89 -9 163 -63 163 -14 0 -16 6 -9 38 4 20 11 54 15 76 5 29 23 56 74 110 38 40 73 88 80 109 15 45 46 68 159 118 48 21 88 42 90 47 1 5 -23 35 -55 66 l-58 57 50 -36 c54 -41 44 -40 207 -12 89 16 101 24 134 89 28 55 31 83 9 74 -20 -7 -64 10 -92 36 -41 38 -24 39 46 2 84 -44 110 -41 146 15 13 22 28 41 32 44 4 3 35 -4 68 -14 72 -22 95 -24 95 -5 0 12 5 12 30 3 27 -10 35 -8 87 29 l58 39 10 84 c10 84 14 92 58 105 9 3 17 15 17 26 0 32 -48 119 -83 151 -35 32 -25 37 30 14 19 -8 48 -15 64 -15 16 0 58 -12 95 -26 59 -24 67 -25 81 -12 12 13 13 20 4 37 -12 22 -7 41 10 41 6 0 8 -9 4 -19 -4 -14 1 -21 25 -29 22 -8 30 -17 30 -35 0 -13 9 -36 21 -51 16 -21 20 -37 17 -77 -3 -48 -2 -50 21 -44 17 4 27 0 38 -15 10 -14 25 -20 54 -20 l40 0 -2 -94 -2 -93 -43 -27 c-59 -37 -101 -88 -115 -138 -19 -66 -25 -70 -94 -53 -93 22 -142 20 -156 -7 -7 -13 -20 -29 -31 -36 -24 -18 -23 -48 4 -66 30 -21 126 -22 134 -1 8 20 30 19 38 -1 4 -9 14 -14 24 -12 13 4 31 -19 77 -101 75 -131 162 -224 257 -270 37 -18 71 -30 77 -26 25 15 11 65 -34 119 -78 96 -51 94 64 -3 51 -43 54 -45 65 -26 6 11 24 32 39 47 16 15 33 44 38 63 9 33 6 44 -32 118 -23 45 -55 100 -70 123 -27 40 -27 40 -7 53 14 9 18 19 14 36 -8 32 13 43 33 17 9 -12 28 -26 43 -31 23 -9 27 -15 22 -38 -4 -22 4 -41 37 -86 23 -32 46 -56 53 -54 6 2 15 18 21 35 5 19 16 32 25 32 23 0 80 62 80 86 0 12 10 25 25 32 14 7 31 23 37 37 9 21 9 29 -5 42 -13 13 -21 14 -40 6 -37 -17 -69 4 -85 55 -8 24 -33 62 -58 87 -24 25 -44 49 -44 53 0 5 -11 23 -25 42 -30 41 -31 50 -6 50 27 0 36 17 19 37 -11 14 -11 17 1 21 23 8 51 41 51 61 0 40 -44 50 -117 26 -40 -13 -25 11 18 28 48 19 47 37 -1 50 -19 5 -45 17 -58 28 -14 11 -40 19 -61 19 l-36 0 45 30 c25 16 45 35 45 42 0 15 -73 58 -99 58 -11 0 -30 -10 -43 -21 l-22 -22 -18 32 c-10 17 -21 31 -26 31 -4 0 -5 11 -1 25 5 20 1 27 -20 36 -16 8 -26 20 -26 33 0 52 -69 94 -130 81 -27 -6 -35 -15 -31 -37 0 -5 -7 -8 -17 -8 -9 0 -25 15 -36 33 -13 23 -20 28 -24 17 -7 -23 -34 -50 -49 -50 -21 0 -15 28 12 52 22 19 24 28 24 99 -1 77 -1 78 -31 88 -54 19 -115 14 -132 -11 -10 -13 -27 -22 -43 -23 -27 0 -28 -2 -31 -56 -2 -45 -7 -58 -21 -62 -11 -3 -21 -17 -25 -36 -3 -17 -9 -44 -12 -61 -3 -16 -10 -30 -16 -30 -6 0 -8 10 -4 23 10 35 24 108 31 157 7 59 38 109 76 123 69 26 -5 71 -101 61 -66 -7 -96 -24 -116 -68 -11 -21 -27 -36 -47 -42 -47 -14 -70 -54 -75 -128 l-4 -63 48 -24 c26 -13 50 -30 52 -38 3 -10 -6 -8 -30 7 -38 24 -73 28 -84 11 -3 -6 -1 -38 6 -71 14 -64 16 -66 85 -43 15 4 32 -5 67 -40 l47 -46 -29 -46 c-17 -26 -30 -52 -30 -59 0 -12 -46 -55 -114 -108 -21 -15 -42 -41 -48 -57 -16 -45 -43 -38 -55 16 -9 40 -8 45 7 45 32 0 41 65 16 124 -26 62 -84 56 -108 -10 -10 -29 -14 -32 -19 -17 -12 30 -10 66 5 82 12 13 12 23 3 53 -10 31 -15 37 -32 32 -17 -6 -16 -3 5 14 33 26 34 86 3 126 -21 26 -21 30 -7 58 8 16 14 46 12 66 -2 30 -8 38 -25 40 -13 2 -23 7 -23 12 0 21 -40 31 -75 20 -44 -14 -115 -92 -115 -125 0 -14 -9 -34 -20 -45 -33 -33 -26 -68 23 -114 40 -37 43 -44 35 -71 -5 -16 -6 -45 -3 -63 5 -29 2 -34 -26 -50 -70 -38 -111 -75 -130 -115 l-19 -42 5 62 c6 58 4 63 -26 97 -21 24 -40 36 -58 36 -37 0 -55 -14 -48 -39 6 -26 -14 -27 -98 -5 -33 8 -68 13 -79 10 -12 -3 -34 10 -66 40 -26 24 -54 44 -62 44 -19 0 -33 17 -61 72 -27 53 -87 80 -131 60 -34 -15 -36 -59 -3 -71 20 -8 17 -10 -23 -22 -25 -7 -51 -17 -57 -22 -16 -12 -17 -69 -1 -85 10 -10 6 -18 -16 -40 l-28 -27 6 50 c5 42 1 58 -22 100 l-27 49 -100 14 c-67 9 -104 19 -112 30 -8 9 -30 17 -55 18 -23 1 -44 6 -45 10 -2 5 14 18 35 29 32 17 37 25 40 61 4 58 -20 84 -88 95 -52 8 -59 13 -132 93 -82 89 -157 146 -193 146 -28 0 -45 -18 -45 -50 -1 -21 -2 -22 -10 -8 -7 11 -7 26 0 43 13 33 13 85 0 85 -24 0 -61 -26 -72 -52 -7 -15 -16 -28 -20 -28 -17 0 -28 43 -28 105 0 101 -33 141 -58 71 -15 -40 -55 -61 -98 -50 -16 5 -37 7 -47 5 -14 -2 -12 3 8 23 50 50 29 57 -80 26 -38 -11 -80 -20 -92 -20 -19 0 -23 -5 -23 -34 0 -24 5 -36 18 -39 16 -4 16 -5 0 -6 -17 -1 -18 -26 -18 -374 0 -206 -3 -691 -7 -1078 l-6 -705 50 -31 c58 -36 107 -107 124 -178 10 -44 8 -57 -10 -106 -53 -141 -201 -210 -319 -150 -113 58 -165 177 -127 292 18 53 86 139 110 139 7 0 17 6 23 13 8 9 13 358 18 1139 l7 1126 -27 -5 c-21 -4 -26 -11 -26 -34 0 -65 -33 -46 -134 78 -42 52 -86 95 -106 104 -21 10 -53 42 -80 79 -45 63 -60 72 -131 84 -37 7 -52 18 -115 93 -52 62 -133 106 -187 101 -41 -3 -43 -2 -63 41 -24 50 -48 65 -116 75 -56 8 -66 20 -42 48 18 19 18 20 -11 45 -26 23 -35 25 -84 19 -31 -3 -66 -9 -78 -12 -17 -5 -23 -2 -23 10 0 12 -10 16 -41 16 -36 0 -42 -4 -52 -29z m3340 -2067 c-3 -3 -12 -4 -19 -1 -8 3 -5 6 6 6 11 1 17 -2 13 -5z m-2587 -1514 c0 -14 -5 -32 -10 -40 -8 -11 -9 -8 -4 11 3 15 1 30 -4 33 -6 3 -8 15 -5 27 7 27 23 5 23 -31z"/>
<path d="M8029 13904 c-10 -12 -10 -22 0 -51 12 -32 11 -36 -8 -49 -27 -19 -26 -28 1 -54 24 -22 71 -26 130 -10 70 20 55 85 -35 145 -58 39 -69 42 -88 19z"/>
<path d="M10912 13894 c-12 -8 -22 -22 -22 -30 0 -8 -10 -14 -25 -14 -20 0 -25 -5 -25 -25 0 -29 19 -41 85 -51 28 -4 46 -8 40 -10 -5 -1 -36 -9 -67 -19 -53 -16 -58 -19 -58 -46 0 -16 -4 -29 -9 -29 -8 0 -20 12 -77 83 -8 10 -28 17 -50 17 -28 0 -42 7 -67 35 -50 57 -77 45 -77 -36 0 -36 -2 -39 -19 -29 -25 13 -107 13 -131 0 -17 -9 -22 -4 -41 40 -21 49 -38 60 -68 41 -7 -5 -32 -3 -59 5 -48 15 -100 18 -126 8 -14 -5 -14 -9 -1 -34 24 -46 17 -49 -8 -5 -20 36 -27 40 -65 43 -34 3 -47 -2 -67 -22 -14 -14 -25 -36 -25 -49 0 -33 -7 -37 -42 -23 -24 8 -32 8 -35 -1 -3 -8 -15 -10 -34 -6 -34 7 -168 -42 -176 -64 -9 -24 7 -64 32 -75 18 -8 32 -8 55 2 20 8 35 9 41 3 14 -14 -88 -40 -229 -59 -125 -17 -212 -47 -212 -72 0 -22 48 -81 84 -103 21 -13 52 -19 96 -20 l65 -2 -56 -6 c-33 -3 -65 -14 -76 -24 -18 -16 -23 -16 -63 -2 -31 11 -47 12 -54 5 -14 -14 13 -62 39 -70 11 -3 30 -12 42 -19 l22 -15 -26 -24 c-31 -28 -27 -67 13 -119 42 -55 114 -80 114 -40 0 10 9 12 32 9 22 -3 35 0 44 13 13 18 14 18 34 0 18 -16 22 -16 42 -3 20 13 24 13 42 -8 12 -13 39 -29 61 -36 35 -11 44 -21 73 -77 21 -42 32 -78 32 -106 0 -43 10 -58 53 -80 22 -11 26 -26 40 -162 5 -41 3 -53 -7 -53 -24 0 -28 -31 -6 -37 24 -6 26 -26 4 -43 -8 -7 -14 -23 -13 -34 1 -12 -1 -28 -4 -36 -17 -39 -12 -64 14 -73 38 -14 57 -3 64 37 l7 35 24 -28 c13 -16 24 -38 24 -50 0 -12 3 -21 8 -21 4 0 13 -14 21 -31 20 -46 1 -60 -47 -33 -47 27 -89 37 -97 24 -9 -15 62 -99 93 -111 18 -7 34 -7 50 1 18 8 28 7 39 -2 23 -19 -19 -49 -58 -41 -25 5 -29 2 -29 -16 0 -11 4 -21 9 -21 13 0 1 -82 -15 -101 -8 -8 -14 -20 -14 -26 0 -6 -21 -15 -47 -19 -52 -10 -67 -29 -31 -43 l23 -9 -27 -10 c-41 -17 -43 -31 -6 -47 l33 -14 -42 -1 c-42 0 -77 -22 -70 -44 2 -6 18 -16 35 -22 l32 -10 -35 -17 c-33 -16 -36 -20 -33 -55 3 -33 6 -37 29 -35 26 1 27 1 23 -58 -3 -53 -1 -60 21 -75 14 -9 21 -22 18 -30 -3 -9 1 -14 13 -14 13 0 6 -9 -21 -27 -22 -14 -42 -27 -43 -29 -7 -5 21 -79 36 -97 10 -11 15 -33 14 -57 -2 -22 1 -40 5 -40 4 0 34 16 66 35 32 19 60 35 63 35 3 0 19 9 35 21 16 11 35 22 42 23 7 1 30 12 50 24 21 12 40 22 43 22 2 0 21 11 42 24 21 13 85 48 142 78 58 30 121 64 140 75 19 11 62 35 95 53 33 18 66 37 73 43 6 5 12 6 12 1 0 -5 4 -4 8 1 4 6 27 20 52 33 25 12 68 35 95 51 28 16 78 45 113 64 34 20 62 33 62 29 0 -4 4 -2 8 3 4 6 27 20 52 33 25 12 65 34 90 48 72 40 99 54 107 55 5 0 13 4 18 9 9 7 99 57 155 87 l25 13 -30 0 c-16 0 -37 5 -45 10 -13 8 -12 10 3 10 10 0 20 7 23 15 3 8 26 17 52 21 60 8 75 20 61 46 -10 18 -9 19 13 7 13 -6 30 -17 38 -25 13 -11 27 -6 92 30 60 33 75 45 66 54 -7 7 -20 12 -29 12 -18 0 -35 17 -26 26 2 2 24 -4 47 -15 40 -18 47 -18 72 -5 32 17 33 20 13 41 -12 11 -13 19 -5 28 27 32 -41 85 -109 85 -68 0 -85 -34 -23 -45 64 -10 72 -25 11 -18 -66 6 -86 -9 -49 -37 l22 -17 -30 5 c-17 2 -37 10 -43 18 -6 8 -20 14 -30 14 -13 0 -19 7 -19 24 0 13 -7 29 -16 36 -8 8 -20 22 -26 33 -9 18 -7 17 33 -4 30 -17 43 -21 46 -11 3 6 12 12 20 12 12 0 14 8 10 35 -3 19 -4 35 -3 35 2 0 20 -7 39 -15 20 -8 48 -15 63 -15 20 0 25 -4 20 -17 -8 -21 10 -33 51 -33 44 0 79 18 92 47 18 40 5 62 -45 74 -24 6 -44 15 -44 19 0 16 42 18 96 4 43 -12 59 -12 70 -3 18 15 18 35 -1 43 -8 3 -15 13 -15 22 0 12 -7 15 -25 12 -18 -4 -29 1 -40 19 l-16 24 35 -6 34 -7 -5 64 c-6 69 -16 88 -45 88 -11 0 -28 5 -39 10 -25 14 -25 40 0 33 27 -7 62 14 54 33 -4 10 7 7 33 -11 43 -29 90 -30 108 -3 15 25 -4 52 -40 56 -37 5 -102 60 -80 68 8 3 25 -1 38 -10 28 -20 34 -20 42 -1 10 26 -16 64 -55 82 -21 10 -39 23 -39 28 0 32 24 86 43 96 12 6 33 22 47 34 14 12 39 29 55 36 26 12 30 20 31 54 0 30 5 41 18 43 11 2 16 10 14 20 -4 14 3 17 38 17 37 0 49 7 96 51 29 27 64 57 78 67 24 16 24 17 5 32 -45 34 -93 38 -189 16 -119 -28 -141 -27 -173 6 -26 25 -27 25 -38 7 -16 -29 -130 -144 -143 -144 -7 0 3 21 22 48 64 90 81 143 54 170 -7 7 -31 12 -54 12 -40 0 -44 -3 -72 -49 -30 -48 -54 -61 -115 -61 -19 0 -18 3 10 28 17 15 35 38 38 51 7 22 5 23 -21 18 -16 -4 -77 -11 -136 -17 -59 -5 -118 -14 -133 -20 -42 -16 -50 -12 -21 11 16 12 26 30 26 46 l0 25 213 -3 212 -4 3 23 c3 17 -2 22 -17 22 -34 0 -62 35 -55 68 l6 29 -109 -3 c-107 -3 -108 -3 -48 9 41 8 60 17 60 27 0 11 -23 18 -95 28 -52 6 -134 19 -182 28 -113 21 -273 16 -312 -10 -22 -14 -27 -24 -24 -47 5 -32 0 -34 -54 -18 -27 7 -38 15 -38 29 0 15 -7 20 -25 20 -18 0 -25 5 -25 20 0 13 -10 24 -26 30 -33 13 -36 13 -62 -6z m538 -118 c0 -2 -7 -7 -16 -10 -8 -3 -12 -2 -9 4 6 10 25 14 25 6z m-409 -37 l24 -20 -30 17 c-39 24 -40 24 -28 24 6 0 21 -9 34 -21z m323 -24 c-18 -27 -34 -25 -34 6 0 14 7 19 25 19 25 0 25 -1 9 -25z m207 -1539 c31 -13 31 -14 9 -21 -16 -5 -28 -1 -43 14 -25 24 -13 27 34 7z"/>
<path d="M7065 13890 c-3 -5 -4 -14 -1 -19 9 -13 46 -1 46 15 0 16 -36 19 -45 4z"/>
<path d="M7556 13883 c-13 -14 -5 -72 14 -94 20 -24 20 -24 35 -5 18 23 19 40 5 66 -12 23 -44 42 -54 33z"/>
<path d="M16130 13861 c0 -16 6 -21 26 -21 33 0 30 33 -4 38 -17 3 -22 -2 -22 -17z"/>
<path d="M6908 13838 c-16 -5 -28 -16 -28 -24 0 -8 -11 -19 -25 -24 -32 -12 -32 -26 3 -45 26 -15 26 -15 -25 -9 -43 5 -54 3 -59 -10 -3 -9 -1 -23 6 -31 21 -25 101 -65 132 -65 16 0 50 -12 76 -27 44 -26 45 -28 22 -34 -14 -4 -41 -7 -61 -8 -49 -1 -54 -10 -22 -43 44 -46 170 -69 241 -45 37 13 49 13 89 1 69 -21 92 -17 139 22 47 38 55 68 32 119 -14 31 -54 34 -63 5 -5 -16 -10 -18 -25 -10 -17 9 -17 13 -3 59 8 28 13 65 11 83 -2 28 -8 34 -30 36 -16 2 -46 -7 -67 -19 -37 -21 -39 -23 -25 -44 10 -15 12 -35 8 -67 l-6 -45 -47 4 c-50 6 -71 23 -71 62 0 33 -35 103 -70 141 -30 32 -76 39 -132 18z"/>
<path d="M6765 13805 c-34 -33 -33 -47 2 -34 36 13 53 28 53 45 0 22 -29 16 -55 -11z"/>
<path d="M7761 13811 c-15 -26 0 -35 45 -26 26 4 34 11 32 23 -5 26 -64 29 -77 3z"/>
<path d="M15843 13813 c-21 -8 -15 -31 10 -39 20 -7 20 -8 -11 -16 -27 -7 -33 -13 -30 -32 2 -16 -6 -31 -21 -43 -35 -29 -22 -53 26 -52 90 3 129 28 79 50 l-25 12 35 32 c41 39 45 60 9 51 -23 -6 -25 -4 -19 19 5 22 3 25 -17 24 -13 0 -30 -3 -36 -6z"/>
<path d="M16221 13751 c-35 -89 -17 -113 50 -68 45 30 58 67 35 101 -9 15 -26 26 -39 26 -18 0 -27 -12 -46 -59z"/>
<path d="M16058 13779 c-25 -14 -23 -50 3 -56 14 -4 18 -11 14 -22 -4 -9 -9 -31 -12 -48 -5 -31 -4 -33 24 -33 46 0 91 19 99 42 8 28 -26 72 -59 76 -21 3 -27 9 -27 28 0 25 -14 30 -42 13z"/>
<path d="M18260 13705 c0 -9 9 -15 25 -15 16 0 25 6 25 15 0 9 -9 15 -25 15 -16 0 -25 -6 -25 -15z"/>
<path d="M6299 13679 c-6 -13 -9 -47 -7 -80 l4 -59 -36 0 c-47 0 -80 -24 -80 -58 0 -20 -14 -39 -55 -75 l-55 -49 21 -30 c18 -24 21 -39 16 -80 -7 -52 4 -88 26 -88 7 0 30 9 51 19 21 11 52 23 69 27 18 3 50 15 72 26 49 26 147 60 153 54 2 -3 -13 -13 -34 -23 -56 -26 -65 -60 -28 -107 19 -24 37 -36 54 -36 22 0 20 -3 -17 -26 -72 -43 -60 -57 89 -105 93 -30 154 -58 128 -58 -8 -1 -50 10 -93 24 -86 27 -127 31 -160 14 -29 -16 -37 -28 -37 -64 0 -45 32 -89 83 -113 45 -21 45 -22 40 -62 -7 -50 9 -70 80 -100 45 -20 64 -22 147 -17 67 3 115 12 164 30 l69 26 45 -50 c52 -58 88 -79 136 -79 25 0 40 7 55 26 29 37 26 48 -9 41 -27 -6 -30 -4 -30 19 0 24 2 25 38 20 133 -20 132 -20 132 3 0 30 -29 84 -85 161 -27 35 -44 65 -39 67 34 12 36 22 38 144 1 101 -2 130 -17 156 -33 62 -117 81 -133 30 -4 -12 -10 -47 -13 -77 -5 -47 -9 -55 -28 -58 -21 -3 -22 -1 -17 40 8 54 -11 124 -36 138 -36 19 -50 12 -50 -25 0 -24 -5 -35 -15 -35 -26 0 -29 4 -27 30 2 17 -6 34 -23 50 -25 23 -28 24 -53 9 -15 -8 -35 -13 -45 -11 -17 3 -17 5 -3 21 46 50 21 119 -38 107 -27 -6 -28 -5 -12 7 21 16 18 24 -41 114 -40 60 -49 65 -108 54 -38 -7 -45 -6 -50 9 -10 32 -50 59 -134 89 -47 17 -86 31 -88 31 -1 0 -7 -10 -14 -21z"/>
<path d="M8111 13681 c-11 -7 -7 -12 15 -24 66 -33 96 -30 108 11 7 21 5 22 -51 22 -32 0 -64 -4 -72 -9z"/>
<path d="M7575 13670 c-10 -15 5 -50 20 -50 17 0 38 36 30 50 -8 13 -42 13 -50 0z"/>
<path d="M15949 13639 c-13 -13 -18 -27 -14 -40 7 -20 6 -20 -20 -3 -19 13 -29 14 -38 5 -6 -6 -23 -11 -38 -11 -30 0 -49 -17 -27 -24 33 -11 140 -17 134 -8 -3 6 2 8 13 5 23 -6 61 40 61 73 0 19 -5 24 -25 24 -14 0 -34 -9 -46 -21z"/>
<path d="M18199 13634 c-11 -14 -9 -15 21 -12 18 2 35 9 38 16 6 18 -43 15 -59 -4z"/>
<path d="M15568 13630 c-9 -6 -22 -26 -28 -45 -6 -19 -16 -35 -22 -35 -6 0 -7 8 -3 18 12 31 10 36 -12 40 -30 5 -63 -15 -63 -38 0 -10 -4 -22 -10 -25 -5 -3 -10 -15 -10 -27 0 -17 5 -20 30 -16 24 4 30 1 30 -14 0 -12 7 -18 25 -18 64 0 109 54 103 124 -3 42 -13 51 -40 36z"/>
<path d="M7727 13623 c-14 -13 -6 -33 12 -33 30 0 51 11 51 26 0 14 -51 20 -63 7z"/>
<path d="M18075 13621 c-3 -5 -1 -12 5 -16 12 -7 30 2 30 16 0 12 -27 12 -35 0z"/>
<path d="M19203 13618 c-27 -13 -37 -36 -22 -54 25 -31 89 -8 89 31 0 14 -4 25 -9 25 -5 0 -15 2 -23 4 -7 3 -23 0 -35 -6z"/>
<path d="M15754 13606 c-8 -22 -2 -27 16 -16 12 7 12 12 3 21 -10 10 -14 9 -19 -5z"/>
<path d="M18130 13605 c0 -8 7 -15 15 -15 8 0 15 7 15 15 0 8 -7 15 -15 15 -8 0 -15 -7 -15 -15z"/>
<path d="M7972 13598 c-19 -19 -14 -79 8 -116 13 -21 38 -41 67 -54 l46 -20 -6 -92 c-3 -50 -3 -96 1 -102 4 -6 19 -14 34 -17 20 -5 28 -14 30 -35 4 -35 34 -40 95 -17 l44 17 39 -42 c39 -42 41 -43 89 -37 37 4 53 2 62 -9 7 -9 25 -14 43 -13 23 2 38 -4 59 -25 26 -26 34 -28 82 -24 60 5 147 51 153 82 6 27 -44 94 -86 115 -27 14 -102 28 -238 46 -202 26 -224 33 -224 73 0 10 -8 13 -25 10 -21 -4 -23 -3 -13 9 9 11 9 19 0 34 -11 17 -8 20 24 34 20 8 43 15 50 15 8 0 14 10 14 25 0 18 -5 25 -20 25 -12 0 -20 -7 -20 -16 0 -11 -9 -6 -30 16 -27 28 -35 32 -75 28 -41 -3 -45 -1 -45 20 0 13 -7 36 -15 52 -14 28 -19 30 -73 30 -32 0 -63 -5 -70 -12z"/>
<path d="M7756 13569 c-9 -13 -21 -19 -30 -16 -11 5 -16 0 -16 -13 0 -14 -7 -20 -21 -20 -29 0 -59 -18 -59 -35 0 -11 13 -15 49 -15 l50 0 -20 -45 c-23 -52 -22 -103 3 -119 26 -16 107 22 135 62 25 39 47 133 39 168 -12 48 -103 71 -130 33z"/>
<path d="M7608 13568 c-33 -12 -36 -24 -8 -33 23 -7 50 10 50 31 0 16 -5 16 -42 2z"/>
<path d="M15720 13552 c-28 -23 -19 -42 18 -42 34 0 49 10 54 35 4 28 -41 32 -72 7z"/>
<path d="M15612 13498 c2 -21 8 -33 18 -33 19 0 25 32 10 50 -20 24 -31 17 -28 -17z"/>
<path d="M7467 13502 c-35 -39 -13 -75 29 -47 17 11 24 24 22 38 -4 28 -30 33 -51 9z"/>
<path d="M9300 13416 c0 -13 20 -26 41 -26 5 0 9 9 9 20 0 15 -7 20 -25 20 -15 0 -25 -6 -25 -14z"/>
<path d="M14025 13410 c-11 -12 -16 -29 -13 -45 5 -25 0 -29 -33 -26 -26 3 -42 -24 -24 -39 8 -7 15 -22 15 -34 0 -12 5 -27 12 -34 9 -9 9 -12 0 -12 -7 0 -12 5 -12 10 0 24 -41 50 -79 50 -45 0 -63 -16 -54 -49 l6 -24 -45 27 c-51 29 -83 33 -92 11 -4 -12 -14 -14 -40 -10 -33 7 -34 6 -40 -32 -4 -21 -8 -56 -9 -78 -2 -37 0 -40 23 -40 16 0 36 -12 54 -32 43 -50 75 -45 115 17 33 51 44 57 71 40 13 -9 13 -12 -3 -21 -50 -29 -69 -56 -71 -95 -1 -35 1 -39 23 -36 19 2 22 -1 16 -15 -17 -43 -16 -53 10 -79 l28 -28 21 26 c12 14 51 67 89 119 37 52 74 103 82 114 14 19 14 18 15 -13 0 -33 1 -33 33 -27 73 16 106 68 50 81 -60 13 -64 15 -58 34 7 22 -13 35 -68 45 -20 4 -34 11 -31 16 9 16 58 37 99 44 l40 6 -45 -21 c-42 -20 -44 -22 -25 -33 12 -7 64 -12 135 -12 94 1 122 4 155 20 35 18 40 25 43 59 3 31 -2 44 -24 67 -29 31 -53 36 -85 18 -15 -8 -32 -7 -65 5 -53 18 -74 12 -74 -19 0 -55 -70 -24 -85 38 -8 32 -34 36 -60 7z"/>
<path d="M14615 13390 c-21 -22 -26 -33 -18 -41 15 -15 96 29 101 54 6 30 -50 22 -83 -13z"/>
<path d="M9377 13376 c-7 -18 1 -26 25 -26 16 0 16 3 6 20 -15 24 -24 25 -31 6z"/>
<path d="M7899 13351 c-31 -31 -39 -71 -14 -71 23 0 56 -41 49 -62 -8 -28 25 -22 53 9 21 22 24 33 20 72 -3 30 -12 51 -27 63 -31 25 -47 23 -81 -11z"/>
<path d="M9276 13371 c-8 -13 21 -34 39 -27 20 7 8 36 -15 36 -11 0 -21 -4 -24 -9z"/>
<path d="M7257 13293 c-23 -22 5 -104 40 -117 26 -10 63 32 63 71 0 27 -5 35 -26 43 -29 11 -68 13 -77 3z"/>
<path d="M16577 13260 c-13 -11 -27 -30 -31 -43 -4 -18 -20 -28 -77 -46 -147 -47 -309 -148 -330 -204 -7 -20 -24 -38 -43 -47 -37 -18 -44 -44 -20 -71 17 -19 16 -21 -15 -65 -34 -49 -50 -102 -34 -113 14 -9 -3 -51 -20 -51 -33 0 -41 -28 -22 -77 18 -46 18 -46 -5 -65 -12 -10 -28 -18 -36 -18 -18 0 -19 -68 -2 -105 12 -27 39 -33 57 -11 19 22 59 8 63 -22 5 -44 39 -54 156 -46 64 4 107 2 115 -4 17 -14 132 -52 157 -52 33 0 23 28 -21 59 -36 26 -48 29 -112 29 -72 -1 -74 0 -136 47 -38 29 -69 62 -77 81 -19 45 -18 124 2 152 15 22 15 24 -1 36 -16 12 -15 14 14 19 34 7 56 45 45 79 -4 13 2 28 16 43 14 15 20 30 16 43 -5 15 1 21 32 30 42 13 78 45 68 61 -16 26 118 127 271 204 68 35 96 72 89 115 -3 19 -10 40 -17 48 -17 20 -72 17 -102 -6z"/>
<path d="M7830 13250 c-12 -7 -12 -12 -2 -22 9 -9 15 -9 24 0 16 16 -2 34 -22 22z"/>
<path d="M17512 13224 c2 -11 11 -20 22 -22 13 -3 17 1 14 14 -2 11 -11 20 -22 22 -13 3 -17 -1 -14 -14z"/>
<path d="M7681 13206 c-8 -9 -26 -12 -54 -9 -49 5 -113 -27 -103 -52 3 -8 9 -21 12 -29 7 -18 -34 -32 -49 -17 -18 18 -55 13 -67 -9 -16 -29 -4 -59 42 -107 39 -40 41 -43 34 -91 -5 -37 -3 -52 8 -61 21 -17 51 -6 64 24 10 20 16 24 41 19 38 -8 74 25 70 64 -2 15 2 37 9 49 13 23 3 65 -17 78 -20 12 -11 23 34 45 51 25 57 46 18 61 -16 7 -23 13 -15 16 16 6 15 33 -2 33 -7 0 -19 -6 -25 -14z"/>
<path d="M14463 13196 c-22 -19 -25 -27 -16 -37 9 -9 22 -7 57 11 49 23 56 34 30 44 -27 10 -42 7 -71 -18z"/>
<path d="M17450 13200 c0 -13 7 -20 20 -20 23 0 26 10 8 28 -18 18 -28 15 -28 -8z"/>
<path d="M12181 13174 c0 -11 3 -14 6 -6 3 7 2 16 -1 19 -3 4 -6 -2 -5 -13z"/>
<path d="M17492 13137 c-27 -29 -28 -43 -3 -57 52 -27 74 -4 51 54 -12 32 -20 32 -48 3z"/>
<path d="M7872 13124 c-17 -16 -44 -39 -60 -51 -36 -28 -47 -74 -27 -113 8 -16 15 -42 15 -58 0 -30 16 -52 37 -52 25 0 63 48 63 78 0 41 7 44 51 22 46 -24 72 -25 89 -4 8 8 27 21 44 28 43 19 98 79 91 98 -8 19 -143 65 -217 74 -51 6 -57 4 -86 -22z"/>
<path d="M12095 13129 c-10 -29 1 -35 25 -14 25 23 25 35 1 35 -11 0 -23 -9 -26 -21z"/>
<path d="M12140 13080 c0 -13 5 -20 13 -17 6 2 12 10 12 17 0 7 -6 15 -12 18 -8 2 -13 -5 -13 -18z"/>
<path d="M14151 13049 c-16 -6 -21 -14 -17 -25 4 -9 1 -23 -6 -31 -14 -17 4 -33 39 -33 12 0 25 -4 28 -10 12 -20 42 -9 80 31 l40 40 -24 20 c-25 21 -97 25 -140 8z"/>
<path d="M12080 13031 c0 -12 29 -23 41 -15 5 3 7 10 4 15 -8 12 -45 12 -45 0z"/>
<path d="M13670 13010 c0 -19 48 -60 70 -60 27 0 25 16 -6 45 -27 25 -64 34 -64 15z"/>
<path d="M17258 12929 c-27 -15 -21 -29 11 -29 34 0 51 18 30 31 -17 11 -20 11 -41 -2z"/>
<path d="M17424 12916 c-3 -8 -4 -23 -2 -33 5 -25 61 -25 66 0 7 37 -51 67 -64 33z"/>
<path d="M8650 12880 c-23 -23 -24 -29 -8 -83 l12 -39 49 6 c34 3 58 1 78 -9 34 -18 66 -19 72 -2 6 17 -26 77 -55 105 -24 22 -76 42 -110 42 -10 0 -27 -9 -38 -20z"/>
<path d="M16913 12868 c-33 -42 -17 -78 35 -78 39 0 62 14 62 37 0 7 -9 13 -20 13 -10 0 -24 9 -30 20 -12 23 -33 26 -47 8z"/>
<path d="M17155 12850 c-9 -15 4 -30 26 -30 23 0 26 25 3 34 -21 8 -22 8 -29 -4z"/>
<path d="M7426 12783 c-12 -12 -6 -43 9 -43 8 0 15 9 15 19 0 21 -13 34 -24 24z"/>
<path d="M12074 12766 c-8 -35 -1 -60 18 -64 12 -2 20 7 26 30 11 41 5 58 -19 58 -11 0 -21 -9 -25 -24z"/>
<path d="M12070 12610 c0 -13 7 -20 20 -20 13 0 20 7 20 20 0 13 -7 20 -20 20 -13 0 -20 -7 -20 -20z"/>
<path d="M7456 12581 c-16 -17 -44 -35 -63 -42 -36 -11 -44 -36 -15 -46 9 -3 34 -21 54 -39 62 -55 139 -55 137 0 0 11 -10 50 -22 86 -26 77 -47 87 -91 41z"/>
<path d="M7292 12553 c2 -10 10 -18 18 -18 8 0 16 8 18 18 2 12 -3 17 -18 17 -15 0 -20 -5 -18 -17z"/>
<path d="M8462 12362 c-10 -3 -10 -7 -1 -18 15 -18 49 -18 49 0 0 15 -27 25 -48 18z"/>
<path d="M3654 12278 c-56 -38 -94 -98 -94 -150 0 -47 18 -53 103 -34 116 27 207 79 207 118 0 5 -47 8 -105 8 -58 0 -105 3 -105 6 0 3 8 18 18 32 43 63 42 64 -24 20z"/>
<path d="M8522 12294 c-12 -8 -22 -22 -22 -30 0 -20 34 -18 53 4 34 38 12 56 -31 26z"/>
<path d="M9940 12158 c0 -12 -9 -31 -20 -43 -27 -29 -18 -51 32 -76 98 -50 134 18 57 106 -36 40 -69 47 -69 13z"/>
<path d="M11800 12116 c-85 -44 -90 -50 -75 -93 5 -15 43 -17 65 -3 10 6 20 4 32 -7 11 -10 26 -13 41 -9 22 5 25 12 29 73 3 38 2 71 -1 75 -4 4 -45 -12 -91 -36z"/>
<path d="M8633 12125 c-40 -17 -65 -55 -61 -92 3 -26 6 -28 47 -28 35 0 47 5 62 25 28 38 33 74 14 94 -20 19 -21 19 -62 1z"/>
<path d="M11635 11990 c-11 -5 -35 -9 -53 -9 -32 -1 -110 -38 -254 -122 -36 -21 -69 -39 -72 -39 -3 0 -62 -31 -131 -70 -69 -38 -127 -70 -130 -70 -3 0 -77 -40 -165 -90 -88 -49 -162 -90 -165 -90 -3 0 -58 -30 -122 -67 -65 -36 -164 -90 -220 -120 -57 -29 -120 -63 -140 -76 -21 -13 -68 -38 -105 -56 -38 -18 -68 -38 -68 -43 0 -19 21 -48 34 -48 9 0 13 -11 12 -32 -1 -29 3 -33 39 -44 22 -7 61 -13 88 -13 26 -1 47 -5 47 -11 0 -5 -4 -10 -10 -10 -23 0 -7 -33 38 -81 31 -33 53 -48 65 -45 9 2 17 0 17 -6 0 -5 12 -8 28 -6 24 3 27 6 25 40 -2 31 3 40 32 63 19 14 35 34 35 45 0 10 14 32 31 49 26 26 29 36 24 62 -6 25 -4 31 14 36 14 3 21 13 21 29 0 13 9 28 19 34 26 13 64 77 57 95 -3 10 1 15 13 15 21 0 35 37 26 73 -8 32 46 82 74 68 36 -20 61 -13 72 19 6 17 15 30 20 30 5 0 9 6 9 14 0 8 9 24 20 37 22 28 27 14 5 -15 -8 -11 -15 -32 -15 -48 0 -34 19 -36 72 -8 21 11 44 17 52 14 8 -3 19 3 25 14 6 11 25 22 42 26 46 9 104 75 149 167 35 72 39 77 51 60 14 -18 17 -18 144 3 180 31 222 47 304 116 38 32 83 61 100 65 47 10 37 30 -20 43 -58 14 -105 14 -134 2z"/>
<path d="M15680 11960 c19 -13 30 -13 30 0 0 6 -10 10 -22 10 -19 0 -20 -2 -8 -10z"/>
<path d="M7968 11908 c-16 -18 -28 -42 -28 -53 0 -12 -12 -32 -26 -46 -14 -13 -41 -45 -60 -71 l-34 -46 30 -30 c18 -18 30 -41 30 -57 0 -40 25 -41 83 -3 118 78 105 74 117 44 5 -14 17 -26 25 -26 9 0 18 -7 21 -15 7 -18 78 -38 104 -30 39 12 21 75 -21 75 -27 0 -29 3 -29 35 0 68 -38 119 -130 179 -24 15 -35 29 -35 46 0 35 -16 34 -47 -2z"/>
<path d="M8100 11921 c0 -22 25 -45 40 -36 14 9 13 21 -6 39 -21 21 -34 20 -34 -3z"/>
<path d="M14010 11852 c0 -34 -4 -40 -45 -62 -46 -25 -58 -53 -33 -78 9 -9 9 -12 0 -12 -7 0 -12 -11 -12 -23 0 -16 -9 -28 -25 -35 -17 -8 -25 -20 -25 -37 0 -14 -4 -25 -9 -25 -5 0 -12 -15 -15 -34 -4 -19 -13 -39 -21 -46 -8 -7 -15 -21 -15 -30 0 -11 -17 -28 -42 -42 -35 -19 -44 -29 -46 -55 -2 -23 2 -34 16 -42 11 -6 22 -7 26 -4 3 3 6 1 6 -5 0 -16 -17 -24 -25 -12 -9 15 -61 12 -75 -5 -7 -8 -10 -24 -7 -35 4 -17 0 -20 -26 -21 -18 -1 -40 0 -51 1 -16 1 -18 -3 -12 -34 6 -33 5 -36 -27 -50 -19 -8 -37 -18 -41 -24 -3 -5 -16 -7 -29 -5 -27 5 -57 -19 -57 -47 0 -10 -9 -22 -21 -25 -16 -5 -20 -13 -16 -31 2 -13 -2 -29 -9 -35 -16 -13 -18 -45 -4 -54 5 -3 7 -19 3 -36 -4 -22 0 -36 14 -52 24 -26 37 -73 23 -82 -19 -12 -10 -35 15 -41 27 -7 25 -19 -3 -19 -31 0 -27 -59 6 -95 38 -43 107 -52 174 -22 46 20 118 96 118 125 0 36 17 23 29 -23 7 -27 21 -60 31 -73 11 -13 23 -42 28 -64 5 -22 24 -62 42 -89 27 -38 33 -57 31 -89 -3 -63 13 -95 47 -95 33 0 50 12 81 57 17 25 30 33 59 35 56 5 76 52 75 180 0 97 0 97 28 108 37 16 63 46 55 65 -3 9 3 24 14 35 43 43 7 125 -65 152 l-35 12 0 76 c1 116 42 185 123 205 44 11 83 80 89 157 7 78 29 107 98 124 25 6 52 14 60 18 11 4 20 -8 36 -48 l20 -53 -26 -12 c-30 -13 -135 -147 -158 -201 -10 -25 -13 -60 -10 -120 5 -103 34 -172 88 -208 49 -34 124 -26 260 26 58 22 108 38 113 35 31 -19 -15 -43 -223 -115 -229 -79 -284 -123 -365 -292 -41 -86 -66 -123 -103 -158 -63 -59 -139 -98 -193 -98 -36 0 -47 6 -105 62 -35 33 -64 67 -64 74 0 20 -41 54 -66 54 -12 0 -27 -7 -34 -15 -7 -8 -27 -15 -46 -15 -18 0 -40 -7 -48 -16 -21 -20 -21 -72 0 -95 8 -9 19 -41 23 -71 4 -29 13 -63 20 -76 13 -25 12 -26 -49 -36 -45 -8 -163 -55 -173 -70 -4 -6 -6 -26 -5 -45 2 -21 -2 -36 -10 -39 -7 -2 -12 6 -12 22 0 46 -28 29 -59 -35 -24 -51 -39 -68 -93 -104 -36 -24 -93 -74 -126 -111 l-62 -68 -45 22 c-25 12 -52 22 -59 22 -23 0 -7 -38 24 -60 51 -36 46 -111 -9 -150 -14 -10 -21 -25 -21 -49 0 -27 8 -41 39 -67 48 -42 72 -92 49 -105 -9 -5 -19 -24 -22 -42 -3 -18 -19 -53 -34 -78 l-29 -44 5 -305 c2 -168 5 -306 7 -308 6 -7 65 51 85 83 12 19 26 65 31 102 13 93 39 129 128 178 72 39 121 84 121 110 0 8 -5 25 -11 39 -9 20 -9 29 2 42 24 29 51 32 108 13 30 -11 75 -19 99 -19 42 0 50 4 96 54 28 29 58 56 67 59 31 10 75 -29 110 -98 42 -85 75 -113 209 -180 175 -88 216 -138 186 -226 -8 -23 -13 -46 -10 -51 11 -17 45 -7 79 23 30 26 35 37 35 74 0 26 -6 47 -15 55 -39 33 2 66 54 44 41 -17 45 -14 30 20 -8 16 -35 39 -69 57 -32 17 -62 41 -69 55 -8 18 -18 24 -44 24 -45 0 -72 21 -121 99 -24 36 -57 83 -75 105 -32 40 -56 108 -47 132 8 20 45 17 53 -3 16 -44 45 -73 72 -73 23 0 36 -10 66 -55 44 -64 73 -85 114 -85 20 0 34 -7 41 -19 5 -11 39 -33 74 -50 36 -17 70 -39 76 -50 5 -11 10 -44 10 -74 0 -57 6 -68 79 -153 20 -22 44 -50 53 -62 13 -16 30 -22 60 -23 l43 -2 -39 -6 c-56 -9 -65 -30 -39 -85 18 -36 29 -47 60 -55 21 -6 49 -11 62 -11 23 0 23 2 17 50 -6 47 -5 51 19 62 16 7 25 19 25 34 0 18 5 22 26 21 47 -3 38 22 -16 47 -36 17 -60 36 -76 63 -13 21 -24 41 -24 45 0 3 18 4 40 1 41 -6 54 9 29 34 -17 17 35 25 121 17 68 -6 81 -4 121 17 24 12 56 25 71 28 l28 6 -40 50 c-46 58 -51 95 -19 157 13 26 18 49 14 65 -4 19 2 33 29 63 31 35 57 97 68 165 2 12 24 31 58 49 30 16 49 23 43 15 -19 -19 -16 -39 6 -39 10 0 33 -5 51 -11 l32 -12 -31 -24 c-38 -30 -40 -51 -3 -55 23 -2 27 -8 27 -33 1 -68 31 -71 144 -14 116 58 112 74 -31 114 -40 11 -58 21 -58 32 0 13 8 15 42 10 36 -5 46 -2 75 24 40 35 98 65 173 90 l55 19 -28 -25 c-16 -15 -40 -25 -58 -25 -33 0 -35 -6 -14 -37 13 -19 13 -25 0 -57 -9 -20 -22 -39 -30 -43 -9 -3 -15 -18 -15 -35 0 -43 48 -85 168 -147 83 -42 102 -48 111 -37 7 8 28 17 47 21 45 8 79 -13 99 -61 13 -33 13 -39 -2 -65 -10 -16 -20 -29 -24 -29 -3 0 -18 -17 -32 -37 -22 -33 -26 -53 -32 -153 -4 -63 -8 -128 -10 -145 -2 -16 -6 -70 -10 -120 -3 -49 -8 -117 -10 -150 -3 -33 -7 -89 -10 -125 -2 -36 -9 -117 -14 -180 -6 -63 -13 -153 -16 -200 -8 -118 -13 -181 -20 -285 -7 -87 -6 -91 18 -117 14 -15 27 -35 29 -45 2 -10 22 -27 46 -38 55 -27 66 -45 92 -145 28 -111 38 -128 107 -184 67 -55 107 -103 165 -201 38 -63 42 -77 43 -140 1 -52 8 -82 25 -117 23 -47 25 -48 70 -48 40 0 48 -4 58 -25 16 -35 16 -35 -20 -35 -28 -1 -30 -2 -15 -11 24 -14 69 -3 141 33 32 16 110 47 171 69 193 66 335 144 335 183 0 24 46 55 135 92 91 37 145 76 145 102 0 8 18 32 41 53 31 28 42 47 46 78 5 33 10 41 32 46 20 5 33 21 59 73 37 78 39 105 13 148 -29 48 -85 85 -159 105 -36 11 -74 27 -84 36 -9 10 -26 54 -36 98 -10 47 -23 80 -30 80 -7 0 -40 -40 -75 -89 -39 -56 -75 -96 -97 -108 -44 -23 -111 -24 -138 0 -19 15 -20 21 -10 64 14 57 0 98 -32 98 -15 0 -22 -8 -27 -30 -5 -28 -23 -53 -23 -32 0 5 -43 57 -94 115 -97 108 -126 151 -126 185 0 22 30 52 53 52 9 0 17 10 19 22 3 21 5 21 45 -15 23 -21 59 -64 79 -95 45 -70 60 -82 98 -82 19 0 57 -18 101 -46 76 -49 76 -49 167 -14 69 27 96 22 125 -25 54 -83 200 -105 435 -66 151 26 179 22 278 -44 76 -50 114 -70 153 -79 18 -4 27 -13 27 -26 0 -26 34 -43 78 -38 l35 4 -31 -26 c-18 -15 -32 -32 -32 -39 0 -17 89 -110 122 -127 15 -8 36 -14 48 -14 32 0 68 43 81 96 l12 47 14 -49 c8 -27 20 -87 28 -134 14 -91 88 -340 101 -340 2 0 21 7 43 16 35 14 42 14 77 -1 30 -12 39 -13 46 -3 5 9 8 4 8 -14 0 -15 4 -30 10 -33 5 -3 16 -27 23 -53 13 -45 13 -49 -11 -87 -14 -22 -32 -45 -40 -51 -12 -9 -10 -19 16 -70 48 -97 103 -241 96 -257 -6 -17 19 -83 43 -109 25 -28 48 -22 100 28 26 25 58 53 71 61 12 9 21 24 20 34 -2 9 8 29 21 43 23 25 24 30 14 79 -8 40 -7 62 3 97 17 55 18 97 2 154 -18 68 3 147 48 183 71 57 108 101 178 213 61 97 80 119 119 140 82 45 115 88 87 116 -9 9 45 104 60 104 4 0 19 -9 33 -20 27 -21 67 -27 67 -9 0 5 8 9 18 8 9 -1 31 1 47 5 76 18 71 21 90 -50 16 -58 24 -70 76 -115 32 -28 59 -61 61 -73 2 -16 12 -22 37 -26 50 -7 69 -46 77 -153 9 -109 19 -120 79 -88 24 13 59 39 78 58 l35 34 32 -64 c18 -37 36 -96 44 -143 10 -63 20 -89 49 -130 35 -48 36 -52 20 -73 -14 -21 -14 -27 1 -73 11 -36 16 -88 16 -184 0 -134 9 -167 35 -131 10 13 12 14 21 1 7 -12 14 -8 36 20 l27 34 -29 45 c-23 37 -26 48 -16 56 8 6 16 45 20 89 4 45 13 84 22 93 12 14 13 27 3 85 -6 38 -13 80 -14 94 -2 14 -9 54 -15 90 -7 36 -13 74 -15 85 -1 11 -8 52 -15 90 -7 39 -14 79 -15 90 -2 11 -11 65 -20 120 -25 141 -43 250 -90 535 -8 47 -19 112 -25 145 -6 33 -20 114 -31 180 -11 66 -26 158 -34 205 -20 117 -43 257 -50 305 -10 61 -15 72 -24 57 -13 -22 -40 -2 -47 34 -14 74 44 127 100 91 25 -17 42 -73 27 -91 -7 -8 7 -30 44 -70 56 -60 330 -347 450 -472 39 -39 129 -134 200 -209 72 -76 135 -143 142 -150 6 -7 29 -11 50 -9 21 1 48 -3 60 -11 26 -17 41 -79 24 -99 -9 -10 1 -25 44 -67 31 -30 60 -56 66 -57 5 -2 25 8 44 22 18 14 39 26 45 26 6 0 26 11 43 24 18 13 64 40 102 60 101 53 135 86 135 133 0 10 9 24 20 30 27 18 47 59 55 118 4 28 21 84 36 125 45 116 71 277 53 324 -4 12 -20 16 -56 16 l-50 0 27 32 c19 22 24 37 19 52 -4 12 -7 35 -6 52 0 27 -15 47 -112 141 -127 124 -163 180 -151 240 15 79 57 135 125 163 24 10 29 17 24 34 -17 60 -112 77 -175 31 -60 -44 -76 -49 -104 -37 -14 7 -29 22 -34 35 -5 12 -16 29 -26 37 -9 7 -23 26 -31 42 -15 28 -14 29 33 76 26 26 61 74 77 107 29 59 54 95 65 95 3 0 12 -4 19 -9 11 -7 10 -19 -3 -66 -17 -56 -17 -59 5 -101 12 -24 25 -44 30 -44 5 0 43 30 85 66 l75 65 36 -13 c41 -14 48 -29 65 -122 15 -88 25 -100 67 -84 46 18 64 3 85 -73 10 -35 27 -93 37 -129 10 -36 19 -77 19 -92 2 -56 58 -77 93 -33 11 14 30 25 44 25 20 0 24 5 24 29 0 26 3 30 28 28 27 -2 27 -2 26 59 -1 99 -40 168 -169 297 l-108 108 21 22 c71 77 100 168 67 211 -12 16 -12 22 0 40 7 11 21 46 29 76 25 84 31 90 59 57 22 -28 24 -29 67 -17 62 17 95 43 121 96 19 41 23 69 29 223 3 98 10 182 14 189 9 15 11 15 -49 -4 -60 -18 -182 -53 -211 -59 -11 -3 -72 -18 -135 -35 -63 -17 -123 -33 -134 -36 -29 -8 -36 -9 -85 -24 -25 -7 -49 -15 -55 -16 -5 -1 -60 -17 -122 -34 l-111 -32 -13 -43 c-8 -28 -21 -47 -36 -54 -13 -6 -23 -15 -23 -21 0 -13 -87 -13 -95 0 -3 6 -15 10 -26 10 -10 0 -19 5 -19 11 0 5 -26 -4 -57 -22 -32 -17 -92 -50 -133 -72 -41 -22 -131 -72 -200 -112 -69 -40 -165 -94 -215 -120 -49 -26 -93 -52 -97 -59 -4 -6 -8 -7 -8 -3 0 5 -12 0 -27 -11 -16 -10 -41 -26 -58 -34 -16 -8 -59 -32 -95 -53 -133 -77 -173 -99 -180 -100 -3 0 -25 -12 -50 -27 -25 -14 -94 -54 -155 -88 -60 -35 -136 -78 -168 -96 -31 -18 -61 -34 -65 -35 -7 -1 -45 -22 -180 -101 -46 -26 -86 -48 -88 -48 -2 0 -22 -11 -43 -24 -21 -14 -42 -22 -45 -19 -3 4 -6 2 -6 -4 0 -5 -26 -23 -57 -39 -32 -15 -59 -32 -61 -36 -2 -4 -9 -8 -16 -8 -7 0 -18 -6 -25 -12 -6 -7 -15 -13 -19 -13 -4 0 -68 -35 -144 -78 -75 -42 -141 -77 -147 -77 -6 0 -11 -4 -11 -8 0 -9 -50 -37 -61 -34 -3 0 -5 -36 -5 -81 1 -73 -2 -87 -26 -123 -32 -50 -83 -94 -108 -94 -10 0 -22 -5 -25 -10 -10 -15 -113 -2 -156 21 -21 10 -54 39 -75 64 -37 45 -38 48 -38 133 -1 98 -2 99 -101 168 -27 19 -71 49 -96 67 -25 17 -72 50 -105 72 -32 22 -73 51 -90 65 -17 14 -44 33 -60 43 -16 9 -54 35 -84 57 -76 55 -186 131 -226 156 -19 11 -44 30 -56 41 -13 11 -43 33 -68 48 -25 16 -47 31 -50 35 -3 4 -30 23 -60 43 -30 21 -76 52 -101 69 -62 44 -152 107 -217 151 -29 20 -65 46 -80 57 -15 12 -43 32 -62 45 -48 33 -123 85 -200 139 -36 25 -87 62 -115 81 -27 19 -72 51 -100 70 -27 20 -79 56 -115 80 -36 25 -86 60 -111 78 -25 17 -68 48 -96 67 -27 19 -85 60 -128 90 -42 30 -94 66 -115 80 -54 36 -167 115 -230 161 -64 45 -129 91 -220 154 -104 71 -161 112 -220 155 -30 22 -68 48 -84 57 -16 10 -43 30 -60 44 -17 14 -51 38 -76 53 -25 15 -72 48 -105 72 -33 24 -80 56 -103 72 -24 15 -53 35 -65 46 -12 10 -44 33 -72 52 -27 18 -72 49 -100 69 -27 19 -79 55 -115 80 -36 24 -87 60 -115 80 -27 19 -72 51 -100 70 -27 19 -104 73 -170 120 -66 47 -138 97 -160 111 -22 15 -53 38 -68 50 -39 33 -47 30 -47 -14z m7220 -2787 c0 -8 9 -15 20 -15 16 0 20 -7 20 -35 0 -22 6 -38 18 -44 9 -6 12 -11 5 -11 -7 0 -15 -21 -19 -50 -6 -44 -10 -51 -33 -56 -14 -4 -32 -14 -39 -22 -16 -20 -80 -21 -92 -1 -9 13 -13 15 -45 18 -8 0 -17 17 -21 38 -4 21 -13 44 -21 51 -18 18 -17 42 2 42 14 0 20 24 16 58 -2 10 25 17 52 13 12 -2 8 17 -5 22 -7 3 22 6 65 6 62 1 77 -2 77 -14z m-3830 -275 c0 -5 -4 -10 -9 -10 -6 0 -13 5 -16 10 -3 6 1 10 9 10 9 0 16 -4 16 -10z m760 1 c0 -5 -7 -11 -15 -15 -15 -5 -20 5 -8 17 9 10 23 9 23 -2z m3144 -346 c8 -8 19 -15 24 -15 5 0 12 -9 15 -21 3 -12 10 -18 15 -15 12 7 22 -17 22 -54 0 -36 -10 -61 -20 -55 -5 3 -11 -8 -15 -24 -5 -25 -12 -29 -49 -34 -57 -8 -116 2 -116 19 0 8 -6 14 -14 14 -8 0 -15 15 -18 43 -7 60 2 117 17 117 8 0 20 6 27 14 27 27 90 33 112 11z m-3044 -245 c0 -5 -4 -10 -10 -10 -5 0 -10 5 -10 10 0 6 5 10 10 10 6 0 10 -4 10 -10z m537 -32 c-3 -8 -6 -5 -6 6 -1 11 2 17 5 13 3 -3 4 -12 1 -19z m225 -180 c2 -13 2 -42 0 -65 l-4 -43 -44 0 c-32 0 -44 4 -44 15 0 8 -7 15 -15 15 -11 0 -15 12 -15 50 l0 50 59 0 c53 0 59 -2 63 -22z m-266 -865 c-10 -10 -19 5 -10 18 6 11 8 11 12 0 2 -7 1 -15 -2 -18z"/>
<path d="M8015 11520 c-27 -11 -48 -37 -40 -50 16 -26 105 0 105 32 0 10 -4 18 -9 18 -5 0 -15 2 -23 4 -7 3 -22 1 -33 -4z"/>
<path d="M8332 11508 c7 -19 38 -22 38 -4 0 10 -9 16 -21 16 -12 0 -19 -5 -17 -12z"/>
<path d="M11685 11488 c7 -30 7 -31 -10 -14 -24 24 -49 16 -53 -17 -2 -18 -9 -27 -22 -27 -23 0 -33 -25 -15 -40 9 -8 33 -9 69 -5 51 7 54 6 49 -13 -3 -15 -17 -22 -51 -29 -53 -9 -70 -33 -24 -33 35 0 79 -31 68 -48 -4 -7 -14 -12 -22 -12 -8 0 -14 -5 -14 -10 0 -14 61 -50 85 -50 11 0 36 -9 55 -20 91 -53 98 -54 159 -27 31 14 86 33 123 42 36 9 73 24 81 33 9 10 27 29 40 43 37 41 41 92 12 150 -14 27 -25 60 -25 74 0 24 -3 26 -37 24 -21 -1 -50 1 -64 5 -19 6 -36 1 -63 -18 -33 -22 -46 -25 -97 -21 -32 3 -59 1 -59 -4 0 -5 -9 -7 -20 -4 -16 4 -20 0 -20 -21 0 -26 -33 -70 -44 -58 -3 3 -6 19 -6 36 0 45 -39 96 -73 96 -27 0 -28 -2 -22 -32z"/>
<path d="M8500 11443 c0 -16 16 -30 38 -37 27 -9 29 5 4 27 -19 18 -42 23 -42 10z"/>
<path d="M8165 11424 c-10 -10 -15 -29 -13 -48 3 -26 8 -32 33 -34 49 -6 78 65 36 88 -27 14 -37 13 -56 -6z"/>
<path d="M8830 11075 c0 -16 34 -38 44 -28 3 3 6 15 6 25 0 13 -7 18 -25 18 -15 0 -25 -6 -25 -15z"/>
<path d="M7961 10744 c-37 -31 -42 -64 -8 -64 28 0 41 9 56 37 28 55 2 69 -48 27z"/>
<path d="M12832 10698 c3 -7 13 -15 22 -16 12 -3 17 1 14 10 -3 7 -13 15 -22 16 -12 3 -17 -1 -14 -10z"/>
<path d="M9142 10668 c-7 -7 -12 -9 -12 -6 0 4 -28 -9 -62 -29 -35 -19 -115 -63 -178 -96 -63 -33 -127 -68 -142 -78 -14 -11 -29 -19 -32 -19 -4 0 -24 -11 -46 -25 -22 -14 -40 -22 -40 -18 0 5 -5 1 -10 -7 -5 -8 -7 -30 -3 -49 4 -25 0 -45 -17 -76 -43 -78 -151 -95 -216 -34 -22 21 -24 21 -49 5 -14 -9 -25 -14 -25 -11 0 3 -18 -6 -40 -20 -22 -14 -42 -25 -44 -25 -3 0 -22 -10 -43 -22 -20 -12 -42 -23 -48 -24 -5 -1 -58 -29 -117 -62 -60 -33 -108 -58 -108 -55 0 3 -6 1 -12 -5 -13 -10 -84 -48 -256 -138 l-92 -49 160 -160 c88 -88 160 -166 160 -174 0 -7 -322 -335 -715 -729 -393 -394 -712 -719 -709 -721 3 -3 10 2 15 12 7 12 17 15 33 11 17 -4 25 1 34 21 7 14 12 33 12 41 0 8 16 22 35 31 33 16 36 15 54 -1 17 -15 30 -17 76 -11 53 6 58 5 92 -25 31 -28 40 -31 72 -24 69 14 74 12 87 -32 7 -23 19 -99 28 -170 18 -141 43 -244 60 -249 42 -12 77 -14 74 -2 -1 6 8 32 21 56 25 48 25 107 1 231 -11 55 -11 76 2 140 42 199 87 254 291 354 140 69 207 116 207 146 0 10 7 21 16 24 11 4 14 12 9 24 -13 30 -24 196 -14 212 5 10 8 -4 9 -42 0 -41 4 -58 13 -58 21 0 64 51 87 103 11 26 25 47 29 47 5 0 33 37 62 81 61 93 71 99 203 124 88 16 146 38 146 54 0 4 -9 16 -20 26 -29 26 -25 46 17 95 54 62 117 100 170 100 35 0 50 6 80 34 25 22 51 35 75 38 36 4 37 3 20 -15 -12 -14 -17 -37 -17 -86 0 -60 2 -66 22 -69 14 -2 43 14 84 47 66 54 142 88 216 98 60 8 54 30 -20 69 -59 31 -116 87 -117 115 0 8 -11 37 -24 62 -14 29 -19 47 -12 47 24 0 76 65 76 96 0 85 -66 101 -205 49 -11 -4 -6 3 12 16 17 13 52 41 77 62 63 54 97 56 232 18 61 -17 134 -31 164 -31 51 0 56 2 98 46 42 45 48 47 121 56 42 6 86 14 99 19 51 20 86 140 62 213 -14 43 -56 60 -127 52 -48 -6 -48 -6 -18 9 17 8 45 14 63 15 57 0 38 38 -59 116 -82 65 -99 97 -99 184 0 60 -6 70 -28 48z m-637 -841 c-40 -27 -100 -60 -90 -50 17 17 89 63 100 63 5 0 1 -6 -10 -13z m120 -367 c-3 -5 -14 -10 -23 -10 -15 0 -15 2 -2 10 20 13 33 13 25 0z"/>
<path d="M12742 10623 c-35 -20 -69 -46 -74 -59 -6 -13 -20 -24 -30 -24 -30 0 -33 -28 -5 -50 33 -26 42 -61 16 -67 -25 -7 -24 -28 2 -56 19 -21 21 -21 34 -4 11 16 13 9 12 -50 l-2 -68 52 3 52 3 -6 -36 c-4 -28 -1 -43 16 -66 29 -39 23 -51 -33 -79 -47 -22 -55 -37 -34 -58 9 -9 5 -19 -20 -45 -18 -18 -32 -43 -32 -55 0 -18 6 -22 33 -22 35 -1 105 -28 74 -29 -29 -2 -92 -38 -133 -77 -37 -35 -38 -37 -18 -44 27 -11 93 4 152 34 26 13 59 26 73 29 l26 7 -4 234 c-3 129 -5 296 -6 372 l-2 139 -32 3 -31 3 14 36 c30 72 1 80 -94 26z"/>
<path d="M12605 10625 c-30 -30 -33 -65 -6 -65 23 0 61 45 61 71 0 26 -26 24 -55 -6z"/>
<path d="M12910 10485 c0 -46 3 -56 12 -47 7 7 12 28 12 47 0 19 -5 40 -12 47 -9 9 -12 -1 -12 -47z"/>
<path d="M12552 10519 c2 -6 8 -10 13 -10 5 0 11 4 13 10 2 6 -4 11 -13 11 -9 0 -15 -5 -13 -11z"/>
<path d="M22813 10475 c-18 -6 -35 -14 -38 -17 -9 -9 28 -90 48 -107 15 -12 17 -10 17 17 0 16 7 35 15 42 13 11 21 9 46 -9 17 -13 33 -21 36 -18 7 8 -22 60 -46 82 -26 23 -37 24 -78 10z"/>
<path d="M8449 10393 c-18 -5 -39 -44 -34 -64 16 -68 46 -84 102 -54 39 22 43 52 12 96 -19 28 -39 33 -80 22z"/>
<path d="M12916 10278 c1 -29 3 -146 4 -260 l1 -208 68 0 c50 0 78 6 111 23 53 27 60 43 26 58 l-25 12 29 34 c51 57 32 125 -39 139 -22 5 -30 13 -35 35 -3 16 -14 42 -24 57 -11 15 -33 50 -51 78 -17 28 -39 59 -49 68 -18 15 -19 14 -16 -36z"/>
<path d="M22830 10264 c0 -20 14 -66 30 -104 41 -94 39 -125 -10 -132 -19 -2 -24 -8 -23 -26 4 -30 -13 -62 -32 -62 -8 0 -15 -3 -15 -6 0 -14 96 -118 133 -145 42 -30 57 -30 57 1 0 10 6 21 13 24 12 5 4 14 -52 55 l-24 18 22 32 c29 41 58 40 116 -5 l47 -35 -7 64 c-7 62 -6 64 23 88 16 13 44 32 61 41 31 17 43 48 18 48 -8 0 -18 10 -24 22 -9 21 -10 20 -17 -15 -6 -34 -9 -37 -41 -37 -24 0 -35 -5 -35 -15 0 -11 -12 -15 -45 -15 -33 0 -45 4 -45 15 0 10 -11 15 -35 15 -31 0 -35 3 -35 28 0 44 -11 76 -21 60 -6 -8 -9 5 -9 35 0 31 4 47 13 47 15 1 -34 39 -50 40 -8 0 -13 -14 -13 -36z"/>
<path d="M12498 10274 c-29 -15 -36 -38 -17 -50 18 -11 -20 -27 -65 -28 -35 -1 -40 -4 -47 -31 -9 -31 11 -65 38 -65 8 0 6 -7 -8 -21 -15 -15 -18 -24 -10 -32 16 -16 13 -24 -11 -31 -31 -7 -51 -42 -43 -76 6 -27 7 -28 63 -23 31 2 69 4 85 4 15 0 57 11 94 23 78 26 80 31 82 148 1 42 6 80 11 83 20 12 10 57 -19 86 -25 24 -37 29 -78 29 -26 -1 -60 -8 -75 -16z"/>
<path d="M12727 10193 c-4 -3 -7 -12 -7 -20 0 -20 28 -15 40 7 9 17 8 20 -8 20 -10 0 -22 -3 -25 -7z"/>
<path d="M12736 10102 c-3 -6 -1 -14 5 -17 15 -10 25 3 12 16 -7 7 -13 7 -17 1z"/>
<path d="M8784 9882 c18 -34 102 -82 145 -82 26 0 31 4 31 24 0 40 -83 86 -157 86 -34 0 -34 0 -19 -28z"/>
<path d="M7378 9736 c-65 -35 -118 -62 -118 -59 0 2 -12 -4 -27 -15 -16 -10 -46 -28 -68 -39 -122 -62 -281 -146 -291 -154 -6 -5 -13 -7 -16 -4 -3 3 -11 -1 -18 -10 -7 -8 -17 -15 -22 -15 -6 0 -49 -21 -96 -47 -48 -26 -89 -48 -92 -48 -5 -1 -19 -8 -85 -45 -122 -68 -145 -80 -145 -75 0 3 -18 -6 -40 -20 -22 -14 -42 -25 -45 -25 -3 0 -23 -11 -45 -25 -22 -14 -46 -25 -55 -25 -8 0 -15 -4 -15 -10 0 -5 -5 -10 -11 -10 -6 0 -49 -21 -95 -46 -46 -25 -86 -45 -90 -44 -4 1 -10 -2 -13 -7 -3 -4 -31 -21 -61 -36 -135 -69 -326 -170 -332 -176 -4 -4 95 -109 220 -234 l228 -227 101 102 c56 57 383 384 727 727 345 344 626 626 626 628 0 5 -3 4 -122 -61z"/>
<path d="M22997 9760 c-3 -13 -14 -20 -30 -20 -35 0 -42 -38 -21 -107 16 -52 16 -60 0 -151 -9 -53 -26 -116 -37 -141 -19 -44 -21 -45 -35 -27 -8 11 -14 26 -14 34 0 7 -6 12 -12 10 -9 -3 -15 -36 -19 -94 -7 -112 -15 -138 -37 -127 -10 4 -40 8 -68 8 -62 0 -113 -31 -145 -90 -13 -22 -31 -52 -42 -66 -23 -32 -16 -62 19 -77 46 -21 67 -13 144 53 41 36 80 65 86 65 6 0 22 -21 35 -47 46 -93 79 -113 119 -73 15 15 20 33 20 71 0 46 2 51 20 46 11 -3 33 -1 48 4 15 4 39 11 55 14 18 4 27 12 27 24 0 14 5 18 19 14 15 -4 24 5 40 36 29 55 27 73 -19 225 l-40 133 21 47 c17 39 19 53 10 79 -12 33 -118 177 -131 177 -4 0 -10 -9 -13 -20z"/>
<path d="M8730 9613 c0 -35 11 -53 42 -69 34 -18 68 -10 68 16 0 13 -5 17 -21 13 -14 -4 -31 4 -55 28 -31 30 -34 31 -34 12z"/>
<path d="M12778 9619 c-27 -15 -23 -57 7 -71 43 -19 69 25 37 63 -19 22 -21 22 -44 8z"/>
<path d="M8910 9569 c-12 -16 -23 -45 -24 -62 -1 -27 3 -32 25 -35 14 -2 35 5 48 15 19 16 21 24 15 66 -8 57 -31 63 -64 16z"/>
<path d="M12511 9108 c-12 -13 -36 -40 -53 -61 -27 -34 -29 -40 -16 -53 13 -13 12 -23 -3 -82 -9 -37 -23 -108 -30 -158 -12 -85 -11 -93 5 -110 14 -13 17 -30 14 -78 l-3 -61 79 0 78 0 29 -41 28 -41 -30 -59 c-17 -33 -49 -75 -72 -94 -195 -162 -239 -234 -182 -302 24 -28 24 -31 9 -59 -16 -32 -107 -95 -212 -148 -42 -21 -69 -43 -80 -62 -9 -17 -61 -92 -115 -167 -117 -164 -169 -262 -175 -335 -3 -45 -1 -56 22 -80 29 -32 42 -74 52 -173 8 -93 -8 -168 -48 -217 -25 -32 -29 -45 -25 -74 4 -20 16 -46 28 -59 13 -13 17 -24 11 -24 -23 0 -14 -67 11 -87 13 -10 26 -25 29 -34 4 -9 20 -19 36 -22 33 -7 61 -48 142 -204 44 -87 105 -153 141 -153 13 0 60 -37 123 -97 151 -143 197 -157 338 -97 l63 27 129 -12 128 -13 67 35 c80 42 170 71 273 87 90 15 86 16 194 -80 42 -37 77 -60 92 -60 16 0 21 4 16 13 -5 9 -4 9 5 1 7 -7 33 -8 74 -3 56 7 64 6 80 -13 10 -12 28 -27 40 -33 30 -14 34 -76 12 -178 -9 -43 -14 -88 -11 -101 5 -22 -13 -59 -40 -81 -38 -33 74 -215 215 -348 52 -49 68 -70 64 -85 -2 -11 3 -32 12 -46 11 -17 20 -59 25 -119 5 -62 16 -115 34 -162 36 -93 31 -123 -37 -232 -82 -130 -109 -188 -115 -241 -3 -38 0 -50 16 -65 17 -16 19 -23 10 -42 -18 -40 -1 -87 82 -221 44 -71 82 -142 84 -159 2 -16 9 -84 15 -150 17 -189 64 -337 117 -372 15 -10 24 -25 24 -42 0 -47 20 -99 63 -163 41 -61 42 -65 39 -135 -3 -65 0 -78 32 -142 30 -58 41 -71 71 -81 43 -14 75 -8 124 26 32 22 46 24 141 24 202 0 287 39 472 219 106 102 128 129 128 152 0 16 5 29 11 29 6 0 8 -8 5 -17 -3 -10 13 3 37 28 81 87 147 248 116 285 -16 19 9 46 100 106 36 24 73 55 84 69 29 40 31 102 8 212 -11 54 -17 105 -14 113 7 19 -25 54 -49 54 -11 0 -29 -5 -40 -11 -24 -13 -177 -18 -184 -7 -3 5 -20 14 -37 22 -92 39 -161 143 -176 262 -6 54 -4 68 15 106 26 49 30 78 12 98 -11 12 -10 12 5 0 16 -12 22 -9 55 22 65 62 108 82 190 91 18 2 34 6 36 8 2 2 6 47 10 99 4 52 11 149 16 215 6 66 12 152 15 190 3 39 8 93 10 120 2 28 7 86 10 130 8 109 15 190 22 250 2 28 7 241 10 475 l5 425 29 30 c16 17 29 34 29 37 0 3 -16 16 -36 27 -20 12 -34 25 -30 28 3 4 -1 14 -9 23 -14 16 -14 19 0 33 8 9 15 22 15 29 1 26 47 65 72 60 4 -1 6 6 6 16 -1 9 2 59 6 110 7 81 6 92 -8 92 -9 0 -16 -4 -16 -10 0 -6 -31 -10 -73 -10 l-72 0 -102 -102 -103 -103 0 -556 c0 -487 2 -557 15 -563 24 -9 55 -68 55 -107 0 -75 -77 -123 -154 -97 -56 18 -77 57 -66 122 5 36 15 56 34 71 l26 21 0 580 0 579 128 128 127 127 57 0 c31 0 60 -4 63 -10 3 -5 26 -10 50 -10 52 0 53 0 60 130 3 52 8 116 11 143 l6 47 -185 0 c-166 0 -186 -2 -200 -18 -10 -10 -15 -21 -12 -23 2 -3 -83 -92 -190 -199 l-195 -195 0 -612 c0 -462 -3 -613 -12 -613 -6 0 -29 8 -49 18 l-38 17 -1 615 0 615 210 210 c116 115 210 206 210 200 0 -5 15 5 33 23 l33 32 198 2 198 3 -23 29 c-15 19 -22 40 -20 57 2 21 -10 43 -48 89 -62 74 -142 192 -114 168 40 -36 47 -25 59 78 l7 69 13 -41 c30 -101 145 -260 150 -206 0 4 3 57 7 117 4 61 10 130 12 155 3 25 7 81 10 125 6 99 14 196 20 255 6 56 13 158 20 270 3 47 10 135 15 195 6 61 12 140 15 178 l5 67 -28 0 c-41 0 -93 -17 -112 -37 -9 -10 -52 -49 -94 -88 -43 -38 -95 -86 -116 -105 -21 -19 -71 -65 -112 -101 -40 -37 -90 -82 -111 -101 l-39 -35 75 -13 c89 -15 129 -9 207 31 31 16 61 29 65 29 10 0 -3 -144 -21 -244 -21 -108 -49 -180 -88 -221 -39 -41 -63 -44 -136 -15 -67 27 -85 25 -176 -11 l-77 -31 -71 21 c-60 18 -183 40 -223 41 -6 0 -31 -19 -55 -42 -25 -24 -65 -61 -89 -82 -55 -50 -243 -221 -285 -261 -17 -16 -60 -55 -94 -85 -34 -30 -79 -71 -100 -90 -21 -19 -72 -66 -115 -105 -42 -38 -94 -86 -115 -105 -21 -19 -76 -69 -121 -110 -46 -41 -97 -86 -112 -100 -16 -14 -52 -47 -81 -75 -71 -67 -148 -137 -236 -215 -41 -36 -92 -83 -115 -105 -22 -22 -76 -71 -119 -110 -123 -110 -112 -91 -91 -152 14 -41 14 -45 -10 -89 -15 -29 -23 -56 -19 -68 4 -15 3 -17 -4 -7 -8 11 -16 11 -42 2 -108 -37 -196 31 -191 149 2 46 2 47 79 111 13 11 21 23 18 27 -2 4 -7 248 -11 542 -3 294 -8 609 -10 700 -3 91 -5 249 -5 351 l0 186 -26 12 c-21 9 -32 9 -57 -4 -40 -20 -91 -19 -135 3 -35 16 -36 17 -12 20 37 5 87 21 161 54 l65 29 -3 107 c-1 59 -3 198 -3 309 l0 202 -27 -15 c-38 -19 -86 -17 -161 6 -35 11 -92 20 -126 20 -52 0 -67 -4 -85 -22z m-348 -1806 c35 -35 48 -112 27 -162 -19 -45 -86 -74 -151 -65 -47 7 -53 11 -80 53 -32 51 -36 92 -15 143 34 80 153 97 219 31z m1018 -1059 c13 -16 12 -17 -3 -4 -17 13 -22 21 -14 21 2 0 10 -8 17 -17z m270 -230 c13 -15 12 -15 -8 -4 -24 12 -29 21 -14 21 5 0 15 -7 22 -17z m524 -453 c3 -6 -1 -7 -9 -4 -18 7 -21 14 -7 14 6 0 13 -4 16 -10z m30 -30 c3 -6 -1 -7 -9 -4 -18 7 -21 14 -7 14 6 0 13 -4 16 -10z m91 -78 c-4 -3 -14 2 -24 12 -16 18 -16 18 6 6 13 -6 21 -14 18 -18z m179 -160 c-3 -3 -11 0 -18 7 -9 10 -8 11 6 5 10 -3 15 -9 12 -12z m351 -293 c4 -8 1 -8 -14 0 -12 6 -24 16 -28 22 -4 8 -1 8 14 0 12 -6 24 -16 28 -22z m89 -79 c3 -6 -1 -7 -9 -4 -18 7 -21 14 -7 14 6 0 13 -4 16 -10z m85 -75 c11 -13 10 -14 -4 -9 -9 3 -16 10 -16 15 0 13 6 11 20 -6z m64 -64 c-2 -3 -12 3 -22 13 -16 17 -16 18 5 5 12 -7 20 -15 17 -18z m136 -106 c33 -35 21 -39 -13 -4 -16 16 -24 29 -19 29 5 0 19 -11 32 -25z m85 -75 c3 -6 -1 -7 -9 -4 -18 7 -21 14 -7 14 6 0 13 -4 16 -10z m50 -48 c-3 -3 -11 0 -18 7 -9 10 -8 11 6 5 10 -3 15 -9 12 -12z m56 -49 l34 -36 -37 29 c-21 16 -38 32 -38 37 0 12 5 9 41 -30z m-811 -43 c0 -5 -2 -10 -4 -10 -3 0 -8 5 -11 10 -3 6 -1 10 4 10 6 0 11 -4 11 -10z m75 -10 c3 -6 -1 -7 -9 -4 -18 7 -21 14 -7 14 6 0 13 -4 16 -10z m50 -10 c3 -5 2 -10 -4 -10 -5 0 -13 5 -16 10 -3 6 -2 10 4 10 5 0 13 -4 16 -10z m60 -18 c-3 -3 -11 0 -18 7 -9 10 -8 11 6 5 10 -3 15 -9 12 -12z m500 -92 c3 -5 2 -10 -4 -10 -5 0 -13 5 -16 10 -3 6 -2 10 4 10 5 0 13 -4 16 -10z m392 -552 c-2 -13 -4 -3 -4 22 0 25 2 35 4 23 2 -13 2 -33 0 -45z m-10 -90 c-3 -8 -6 -5 -6 6 -1 11 2 17 5 13 3 -3 4 -12 1 -19z m-24 -249 c-6 -6 -7 3 -4 23 4 28 6 29 9 9 2 -13 0 -27 -5 -32z m-6 -81 c-2 -13 -4 -3 -4 22 0 25 2 35 4 23 2 -13 2 -33 0 -45z m-16 -183 l-11 -40 5 40 c3 22 6 63 7 90 l2 50 3 -50 c2 -27 -1 -68 -6 -90z"/>
<path d="M12452 9093 c-7 -2 -17 -14 -23 -26 -9 -19 -8 -20 3 -7 8 8 20 21 28 28 15 13 13 14 -8 5z"/>
<path d="M15343 9025 c-56 -25 -124 -48 -150 -51 -60 -8 -93 -27 -87 -52 6 -21 -16 -33 -91 -51 -70 -17 -115 -47 -115 -77 0 -13 5 -24 10 -24 6 0 10 -9 10 -19 0 -11 4 -23 10 -26 5 -3 7 -19 3 -35 -4 -22 -2 -30 9 -30 21 0 48 -33 48 -58 0 -11 5 -24 10 -27 6 -4 7 -11 4 -17 -9 -14 15 -28 49 -28 15 0 45 -9 67 -20 52 -26 73 -25 107 6 39 36 160 145 207 185 21 19 64 59 95 89 32 30 92 86 135 125 l78 69 -71 18 c-39 9 -91 29 -114 43 -60 35 -96 31 -214 -20z"/>
<path d="M13646 8884 c-3 -9 -6 -56 -6 -105 0 -97 1 -98 58 -78 17 6 34 20 37 30 9 28 -4 120 -21 147 -17 26 -59 30 -68 6z"/>
<path d="M13330 8806 c0 -9 5 -16 10 -16 6 0 10 4 10 9 0 6 -4 13 -10 16 -5 3 -10 -1 -10 -9z"/>
<path d="M4420 8755 c0 -3 20 -27 45 -54 56 -60 72 -98 81 -194 4 -42 10 -77 15 -77 5 0 6 -6 3 -14 -7 -17 14 -126 24 -126 4 0 31 14 60 30 52 30 52 31 52 80 0 27 4 51 9 54 5 3 25 -5 45 -19 44 -30 49 -31 41 -6 -3 11 -1 22 5 26 22 13 8 36 -42 70 -51 34 -131 88 -233 159 -27 19 -62 45 -77 56 -16 12 -28 19 -28 15z"/>
<path d="M20377 8670 c2 -25 9 -58 13 -75 5 -16 11 -55 14 -85 6 -53 9 -74 36 -220 7 -36 14 -74 15 -85 16 -102 57 -349 75 -445 9 -52 45 -267 65 -390 17 -109 21 -132 45 -265 11 -60 27 -156 36 -212 13 -81 20 -102 35 -106 11 -3 19 -16 21 -38 3 -30 7 -34 39 -40 48 -7 75 -28 115 -88 20 -30 48 -57 67 -65 45 -19 67 -47 73 -92 14 -106 13 -104 43 -104 38 0 88 36 126 90 17 24 60 65 96 90 84 60 99 91 99 200 1 47 1 100 1 117 1 55 -40 109 -173 228 -176 158 -215 233 -170 321 23 45 84 104 132 129 49 25 79 16 115 -35 18 -25 41 -46 53 -48 19 -3 22 1 22 33 0 31 5 39 44 63 l44 28 -50 52 c-40 42 -53 50 -64 41 -8 -6 -14 -8 -14 -5 0 4 -8 2 -18 -3 -23 -12 -59 7 -77 43 -13 24 -13 31 1 58 18 34 30 17 -121 173 -27 28 -88 92 -134 141 -76 80 -188 198 -504 529 l-106 110 6 -45z"/>
<path d="M13979 8644 c-44 -13 -75 -44 -45 -44 8 0 48 -18 90 -40 41 -22 82 -40 89 -40 15 0 27 48 27 108 l0 32 -57 -1 c-32 0 -79 -7 -104 -15z"/>
<path d="M5080 8533 c-57 -30 -105 -55 -106 -56 -1 -1 -5 -20 -8 -42 -6 -38 -12 -45 -50 -70 -12 -8 -17 -41 -22 -175 l-6 -165 31 -39 c27 -34 31 -46 31 -103 0 -55 4 -71 29 -106 16 -23 46 -58 66 -77 48 -46 61 -72 86 -177 18 -77 19 -95 9 -141 -18 -80 -7 -113 58 -183 57 -62 116 -98 161 -99 15 0 38 -16 62 -42 80 -88 89 -96 117 -101 15 -3 50 -22 77 -41 122 -88 136 -91 223 -51 90 42 110 35 178 -63 79 -112 100 -130 187 -157 46 -15 102 -25 138 -25 55 0 59 -1 59 -24 0 -13 17 -45 38 -72 22 -29 48 -81 63 -129 18 -57 31 -81 44 -84 27 -5 96 -50 121 -79 l22 -24 53 18 c30 10 57 17 62 16 16 -5 5 19 -33 64 -77 94 -84 132 -46 260 45 153 41 224 -16 255 -14 8 -83 16 -172 20 -81 4 -153 12 -158 17 -7 7 0 32 20 75 17 36 41 96 52 134 30 96 50 140 72 160 25 23 48 66 48 91 0 47 -76 68 -125 36 -15 -10 -35 -14 -48 -10 -64 16 -125 -32 -142 -112 -8 -38 -55 -96 -94 -117 -46 -23 -140 -36 -183 -24 -71 19 -146 104 -183 209 -47 130 -47 145 -15 247 17 51 30 103 30 116 0 12 13 49 30 82 16 33 30 65 30 70 0 6 -157 168 -350 360 -342 342 -377 384 -337 398 6 2 10 7 7 9 -3 3 -52 -19 -110 -49z m75 -63 c3 -5 1 -10 -4 -10 -6 0 -11 5 -11 10 0 6 2 10 4 10 3 0 8 -4 11 -10z"/>
<path d="M13690 8553 c-8 -3 -25 -15 -38 -26 -17 -16 -25 -18 -34 -9 -26 26 -456 0 -535 -33 -20 -9 -60 -34 -89 -56 l-52 -40 3 -137 c2 -75 6 -330 9 -567 13 -904 18 -1090 30 -1097 6 -4 23 -8 38 -8 15 0 30 -4 33 -10 9 -15 20 -12 47 13 13 12 59 54 102 92 43 39 95 86 116 105 20 19 72 66 114 104 42 37 94 85 115 105 40 36 194 177 215 196 7 6 36 33 67 60 30 28 90 82 132 120 43 39 97 88 121 110 23 22 77 72 121 110 43 39 95 86 116 105 20 19 71 67 114 105 43 39 92 84 109 100 18 17 65 59 106 95 137 121 152 137 131 143 -11 2 -21 15 -23 28 -3 21 -9 24 -53 27 -123 8 -177 -20 -189 -99 -7 -48 -39 -109 -57 -109 -6 0 -43 16 -82 35 -39 19 -80 35 -91 35 -11 0 -42 24 -70 55 -51 54 -52 55 -131 65 -110 15 -206 45 -239 75 l-26 24 30 54 c35 62 37 83 11 92 -37 12 -43 30 -21 67 33 55 28 68 -29 68 -27 0 -61 2 -77 5 -16 2 -36 2 -44 -2z"/>
<path d="M4846 8472 c-29 -38 -12 -76 37 -80 31 -3 39 1 49 23 10 22 8 30 -9 53 -26 34 -53 36 -77 4z"/>
<path d="M15467 8476 c-21 -8 -47 -22 -58 -32 -22 -20 -26 -72 -5 -80 21 -8 69 20 105 61 53 60 38 79 -42 51z"/>
<path d="M14991 8446 c-9 -10 -9 -16 -1 -21 17 -10 37 12 24 25 -8 8 -15 6 -23 -4z"/>
<path d="M14781 8431 c-14 -4 -26 -12 -28 -18 -5 -14 79 -43 124 -43 36 0 93 24 93 39 0 9 -111 32 -146 30 -10 -1 -30 -4 -43 -8z"/>
<path d="M4812 8286 c-3 -79 0 -102 18 -143 14 -32 24 -43 29 -35 4 7 9 66 10 131 2 106 0 119 -16 125 -10 3 -22 8 -28 11 -6 3 -11 -31 -13 -89z"/>
<path d="M4655 8289 c-16 -11 -37 -24 -44 -28 -13 -8 -11 -20 13 -79 31 -76 29 -108 -4 -97 -17 5 -20 2 -20 -20 0 -20 19 -46 68 -97 l67 -70 -2 -70 c-3 -77 3 -92 56 -157 20 -24 41 -54 48 -65 22 -38 16 102 -7 170 -12 32 -32 122 -45 198 -23 127 -82 337 -95 335 -3 0 -18 -9 -35 -20z"/>
<path d="M4878 7652 c-3 -26 -1 -56 3 -67 6 -18 8 -18 18 9 11 29 6 92 -9 101 -4 3 -10 -16 -12 -43z"/>
<path d="M6880 7456 c-86 -34 -120 -52 -120 -63 0 -16 66 -17 128 -3 38 9 47 8 69 -10 14 -11 40 -20 58 -20 18 0 38 -6 44 -14 6 -7 37 -23 69 -35 31 -11 76 -36 100 -55 42 -34 43 -35 23 -48 -25 -15 -27 -34 -5 -42 20 -8 249 5 265 14 19 13 0 31 -65 61 -33 15 -71 39 -84 53 -29 31 -123 86 -147 86 -10 0 -52 19 -94 41 -62 35 -87 43 -141 46 -41 2 -78 -2 -100 -11z"/>
<path d="M21275 7385 c-57 -56 -8 -160 72 -153 34 3 39 7 49 38 35 110 24 140 -52 140 -34 0 -51 -6 -69 -25z"/>
<path d="M7640 7364 c0 -8 5 -12 10 -9 6 3 10 10 10 16 0 5 -4 9 -10 9 -5 0 -10 -7 -10 -16z"/>
<path d="M6877 7356 c-6 -16 11 -26 31 -19 6 3 12 11 12 19 0 18 -36 18 -43 0z"/>
<path d="M22210 7341 c-47 -8 -61 -49 -53 -153 4 -55 2 -78 -6 -78 -18 0 -13 -38 14 -88 35 -67 59 -92 89 -92 16 0 26 -6 26 -15 0 -8 3 -14 8 -14 30 5 49 -4 58 -28 8 -23 11 -25 24 -12 13 12 18 11 36 -7 11 -11 18 -26 16 -32 -2 -7 1 -12 7 -12 6 0 11 5 11 11 0 7 11 8 30 4 29 -6 30 -5 30 27 -1 64 -56 103 -130 93 -47 -7 -49 -6 -56 20 -4 15 -4 75 0 134 7 106 -5 213 -26 239 -11 13 -21 13 -78 3z"/>
<path d="M15797 7313 c-2 -5 -5 -28 -6 -53 -1 -25 -5 -89 -9 -142 -4 -53 -6 -102 -4 -107 2 -7 38 -11 90 -11 70 0 83 2 71 13 -31 26 -40 48 -59 146 -10 56 -27 115 -37 131 -17 29 -37 39 -46 23z"/>
<path d="M7550 7264 c0 -11 8 -14 27 -12 39 4 42 28 4 28 -21 0 -31 -5 -31 -16z"/>
<path d="M7572 7168 c-18 -18 -15 -27 14 -38 21 -8 25 -15 22 -42 -3 -31 -4 -31 -58 -32 -45 -1 -55 -4 -58 -20 -6 -27 15 -36 88 -36 42 0 73 -5 87 -15 20 -14 26 -13 70 11 42 23 56 25 116 21 65 -6 67 -5 67 17 0 29 -76 84 -167 121 -68 27 -160 34 -181 13z"/>
<path d="M7172 7043 c5 -29 66 -54 123 -51 28 2 50 8 49 13 0 6 -15 20 -34 33 -43 29 -143 33 -138 5z"/>
<path d="M8010 7010 c-14 -26 -7 -37 30 -45 34 -8 92 9 111 31 19 23 -5 34 -73 34 -47 0 -59 -4 -68 -20z"/>
<path d="M15769 6932 c-1 -18 -10 -132 -13 -172 -3 -41 0 -47 31 -68 21 -14 32 -29 29 -38 -6 -15 10 -29 18 -16 5 9 315 7 324 -2 3 -3 11 2 19 12 10 13 13 14 11 2 -2 -11 8 -16 40 -18 l44 -3 -29 37 c-15 21 -50 55 -78 75 -27 21 -62 48 -77 59 -18 14 -29 34 -33 58 -14 83 -9 81 -154 81 -72 0 -131 -3 -132 -7z m26 -230 c-3 -3 -11 0 -18 7 -9 10 -8 11 6 5 10 -3 15 -9 12 -12z"/>
<path d="M22430 6771 c0 -22 16 -36 53 -45 32 -8 33 -3 6 35 -23 33 -59 39 -59 10z"/>
<path d="M22520 6774 c0 -9 10 -33 22 -52 28 -46 30 -72 6 -72 -31 0 -23 -45 12 -70 36 -26 100 -21 100 7 0 10 -6 14 -17 11 -11 -3 -26 6 -39 21 l-22 26 40 -3 c38 -4 40 -3 33 19 -15 48 -54 117 -70 123 -32 12 -65 7 -65 -10z"/>
<path d="M20107 6728 c-20 -44 -23 -132 -5 -126 15 5 30 79 25 128 l-3 35 -17 -37z"/>
<path d="M22369 6696 c-11 -24 -8 -30 47 -88 89 -95 93 -96 101 -26 3 29 0 49 -11 63 -15 19 -15 18 -16 -20 0 -36 -1 -38 -14 -20 -7 11 -17 34 -20 52 -8 35 -19 47 -53 57 -18 6 -25 2 -34 -18z"/>
<path d="M22156 6658 c-3 -13 -6 -36 -6 -51 0 -39 -23 -80 -55 -97 -15 -8 -35 -26 -44 -40 -22 -31 -43 -90 -32 -90 17 0 143 133 157 165 20 48 16 135 -6 135 -4 0 -10 -10 -14 -22z"/>
<path d="M22370 6602 c0 -12 19 -26 26 -19 2 2 -2 10 -11 17 -9 8 -15 8 -15 2z"/>
<path d="M17087 6583 c-45 -7 -31 -37 18 -41 43 -3 83 17 71 36 -7 12 -34 13 -89 5z"/>
<path d="M15970 6560 c0 -5 -19 -10 -42 -10 -39 0 -48 -5 -115 -72 l-73 -72 0 -964 c0 -822 2 -966 14 -978 19 -18 22 -18 57 7 22 15 27 17 23 5 -3 -9 -12 -16 -19 -16 -24 0 -23 -27 3 -81 19 -38 28 -73 30 -124 3 -38 8 -75 13 -81 6 -8 4 -14 -5 -17 -18 -7 -68 -102 -59 -111 4 -3 -1 -6 -10 -6 -22 0 -21 -13 2 -34 18 -17 19 -17 25 1 3 11 21 25 40 31 21 8 50 33 75 66 27 35 56 59 84 71 106 44 163 76 176 97 11 17 15 71 17 220 3 187 2 196 -17 201 -10 3 -19 12 -19 21 0 9 -4 16 -9 16 -5 0 -9 10 -9 23 0 12 -12 67 -26 122 -16 60 -28 130 -29 176 -1 70 1 80 33 133 55 92 172 225 380 435 275 278 286 294 375 536 26 72 63 155 81 186 36 59 45 120 24 160 -13 24 -26 24 -81 0 -24 -10 -73 -22 -109 -26 -42 -5 -88 -19 -130 -40 -90 -46 -167 -61 -213 -41 -47 19 -71 57 -63 97 3 17 3 42 0 55 l-6 24 -209 0 c-133 0 -209 -4 -209 -10z m102 -1892 c-7 -7 -12 -8 -12 -2 0 14 12 26 19 19 2 -3 -1 -11 -7 -17z m-119 -93 c-3 -9 -8 -14 -10 -11 -3 3 -2 9 2 15 9 16 15 13 8 -4z"/>
<path d="M22420 6535 c0 -17 3 -47 7 -68 5 -34 9 -38 31 -35 18 2 28 11 33 30 6 22 1 32 -32 64 l-39 38 0 -29z"/>
<path d="M22527 6535 c-4 -8 -2 -17 3 -20 13 -8 40 6 40 21 0 19 -36 18 -43 -1z"/>
<path d="M7610 6499 c-30 -11 -85 -31 -121 -43 -114 -40 -187 -102 -239 -206 -12 -25 -24 -46 -25 -48 -2 -2 -28 17 -59 42 -84 68 -84 68 -157 43 -35 -12 -70 -28 -77 -34 -7 -7 -23 -15 -35 -17 -22 -5 -73 -17 -92 -22 -5 -1 -34 -11 -62 -22 -49 -17 -52 -20 -39 -37 12 -17 17 -18 42 -7 25 12 32 10 78 -22 62 -42 95 -51 119 -34 14 11 16 19 9 38 -12 33 -6 47 28 65 53 27 120 17 120 -18 0 -11 12 -45 27 -76 30 -61 33 -109 17 -274 -8 -80 -12 -91 -37 -109 -30 -22 -201 -260 -217 -302 -13 -35 -13 -143 0 -151 5 -3 19 -1 30 5 33 18 25 -17 -22 -90 -41 -65 -57 -125 -45 -172 4 -13 49 -81 102 -152 110 -149 147 -209 200 -327 21 -46 62 -132 92 -191 68 -134 108 -172 275 -259 203 -106 256 -172 296 -373 13 -66 14 -89 3 -152 -9 -52 -9 -79 -2 -93 6 -11 11 -36 11 -55 0 -20 2 -36 4 -36 2 0 21 7 42 16 71 30 161 5 229 -63 54 -54 68 -89 69 -165 1 -38 2 -68 3 -68 1 0 11 10 23 22 11 12 20 17 20 11 0 -12 -144 -159 -188 -191 l-32 -24 0 -147 c0 -101 4 -151 12 -159 7 -7 8 -12 2 -12 -16 0 -29 -749 -14 -795 9 -26 9 -44 1 -68 -9 -27 -8 -41 4 -70 8 -20 15 -54 15 -76 0 -28 6 -44 20 -54 19 -13 18 -14 -15 -27 -41 -16 -46 -40 -10 -40 28 0 41 -21 30 -47 -7 -15 -9 -14 -18 10 -15 39 -31 33 -24 -9 5 -30 4 -34 -8 -24 -27 22 -56 7 -71 -35 -22 -64 -19 -75 21 -75 19 0 46 -5 60 -12 26 -12 27 -24 9 -90 -4 -12 3 -18 23 -21 l28 -4 -29 -2 c-23 -1 -27 -4 -21 -18 18 -45 19 -57 2 -50 -13 5 -17 0 -17 -22 0 -16 7 -31 15 -35 8 -3 15 -12 15 -20 0 -8 5 -27 11 -43 6 -15 12 -46 13 -67 1 -37 26 -66 26 -31 0 14 3 15 15 5 12 -10 13 -16 4 -27 -9 -10 -7 -18 7 -34 11 -12 18 -29 16 -39 -4 -27 17 -35 26 -9 8 19 9 20 15 5 5 -11 13 -15 25 -12 13 4 25 -3 41 -25 20 -26 28 -30 55 -26 28 5 29 5 9 -5 -28 -13 -28 -15 -3 -56 21 -35 50 -43 50 -14 0 31 21 44 42 25 22 -20 23 -49 1 -61 -22 -13 -10 -40 22 -48 14 -3 28 -4 31 -1 3 3 10 38 15 78 5 39 14 78 20 86 19 21 22 8 8 -31 -11 -31 -11 -38 4 -54 9 -10 17 -26 17 -35 0 -8 12 -25 26 -36 l27 -21 48 53 c35 38 44 54 34 59 -19 11 -85 105 -85 122 0 7 -17 33 -39 57 -37 42 -38 47 -33 97 4 46 7 52 27 52 19 0 23 7 28 53 4 33 23 84 52 140 59 115 59 128 -7 164 -28 15 -61 40 -72 55 l-20 28 21 22 c31 35 40 56 53 138 7 41 21 95 31 119 10 24 16 47 13 52 -3 5 7 9 21 9 23 0 26 4 23 27 -2 22 -8 28 -27 28 -27 1 -81 56 -81 85 0 18 5 19 60 13 l60 -6 0 175 c0 96 3 290 7 431 6 249 6 257 -13 257 -18 1 -18 1 -1 11 14 8 17 24 17 79 0 70 0 70 -37 94 -60 37 -91 74 -113 132 -25 68 -25 80 0 147 31 83 110 149 197 163 130 20 271 -112 257 -241 -10 -84 -58 -168 -111 -195 -53 -27 -63 -41 -63 -88 l0 -45 43 6 42 6 -30 -14 c-16 -8 -36 -14 -42 -15 -10 0 -13 -32 -13 -123 0 -68 -3 -220 -7 -337 l-6 -213 29 7 c16 4 62 23 102 42 84 41 121 87 129 158 5 43 4 47 -42 88 -41 38 -95 112 -95 132 0 3 14 -1 31 -9 116 -60 281 10 348 148 20 41 22 52 11 71 -10 20 -8 33 19 94 17 39 31 73 31 76 0 3 -15 3 -32 0 -38 -6 -19 9 23 20 22 5 28 2 33 -17 6 -22 7 -22 21 -3 12 16 12 22 2 28 -9 6 -8 8 4 8 30 0 38 41 18 88 -35 81 -15 186 45 242 15 14 36 41 46 61 26 50 137 149 212 190 52 28 74 34 125 34 69 0 101 17 140 74 32 48 81 179 115 311 26 99 30 135 32 255 0 77 -2 156 -7 176 -7 33 -5 37 16 43 14 3 43 31 67 63 24 32 67 87 95 123 97 121 146 232 147 331 0 94 -25 117 -154 144 -57 12 -90 27 -156 71 -112 74 -143 84 -267 84 -156 0 -189 7 -202 40 -15 39 -159 113 -221 113 -38 0 -49 -5 -92 -48 -28 -27 -50 -46 -50 -43 0 4 11 18 25 32 17 17 25 36 25 59 0 38 -12 52 -52 62 -15 4 -30 14 -33 23 -6 15 -8 14 -16 -5 -10 -27 -24 -30 -33 -6 -4 9 4 31 19 53 14 20 25 41 25 47 0 5 -14 30 -30 54 -17 24 -37 69 -46 99 -21 70 -46 120 -73 144 -26 23 -110 38 -129 23 -10 -8 -12 -7 -10 3 4 18 -117 48 -200 49 -56 1 -63 4 -71 24 -12 32 -31 45 -70 49 -30 3 -34 6 -36 36 -3 38 -26 66 -105 127 -69 54 -160 142 -160 155 0 16 -157 13 -163 -4 -11 -28 -56 -28 -92 -1 -32 25 -38 26 -113 20 l-79 -7 -57 71 c-31 39 -62 71 -69 71 -7 0 -17 -10 -22 -22 -6 -13 -32 -34 -59 -47 l-48 -24 7 -76 c9 -103 -12 -83 -28 24 l-11 78 37 31 c34 28 49 57 30 56 -5 -1 -33 -10 -63 -21z m1271 -852 c-10 -9 -11 -8 -5 6 3 10 9 15 12 12 3 -3 0 -11 -7 -18z m-98 -228 c24 -11 42 -64 31 -92 -5 -14 -68 -47 -88 -47 -20 0 -50 74 -42 105 10 38 55 54 99 34z m-153 -381 c19 -13 32 -26 29 -29 -2 -4 3 -15 12 -25 24 -29 21 -68 -7 -110 -30 -45 -47 -57 -88 -61 -36 -4 -106 35 -106 58 0 10 -4 21 -10 24 -5 3 -10 18 -10 32 0 28 30 97 38 88 3 -3 15 3 26 14 19 17 42 27 72 30 6 0 26 -9 44 -21z m1674 -33 c-4 -8 -11 -15 -16 -15 -6 0 -5 6 2 15 7 8 14 15 16 15 2 0 1 -7 -2 -15z m-83 -78 c-10 -9 -11 -8 -5 6 3 10 9 15 12 12 3 -3 0 -11 -7 -18z m-51 -41 c0 -2 -8 -10 -17 -17 -16 -13 -17 -12 -4 4 13 16 21 21 21 13z m-100 -89 c0 -2 -15 -16 -32 -33 l-33 -29 29 33 c28 30 36 37 36 29z m-1579 -68 c-25 -41 -27 -35 -5 17 9 22 19 34 21 28 2 -7 -5 -27 -16 -45z m99 -15 c0 -17 -22 -14 -28 4 -2 7 3 12 12 12 9 0 16 -7 16 -16z m-133 -142 c24 -15 42 -31 41 -37 -1 -5 2 -28 6 -51 13 -72 -39 -154 -97 -154 -9 0 -17 -5 -19 -11 -2 -7 -12 -7 -31 2 -23 11 -30 10 -37 0 -10 -18 -30 -5 -30 20 0 10 -4 19 -8 19 -26 0 -43 29 -48 83 -5 52 -3 61 21 93 42 55 67 75 87 68 10 -3 18 -1 18 5 0 14 42 -2 97 -37z m1407 33 c-4 -8 -11 -15 -16 -15 -6 0 -5 6 2 15 7 8 14 15 16 15 2 0 1 -7 -2 -15z m-44 -40 c-7 -9 -15 -13 -19 -10 -3 3 1 10 9 15 21 14 24 12 10 -5z m-80 -68 c0 -2 -12 -14 -27 -28 l-28 -24 24 28 c23 25 31 32 31 24z m-1600 -62 c0 -8 -4 -15 -10 -15 -5 0 -10 7 -10 15 0 8 5 15 10 15 6 0 10 -7 10 -15z m1535 -5 c-3 -5 -11 -10 -16 -10 -6 0 -7 5 -4 10 3 6 11 10 16 10 6 0 7 -4 4 -10z m-45 -40 c0 -5 -5 -10 -11 -10 -5 0 -7 5 -4 10 3 6 8 10 11 10 2 0 4 -4 4 -10z m-1339 -113 c-10 -9 -11 -8 -5 6 3 10 9 15 12 12 3 -3 0 -11 -7 -18z m1229 13 c0 -5 -5 -10 -11 -10 -5 0 -7 5 -4 10 3 6 8 10 11 10 2 0 4 -4 4 -10z m-50 -39 c0 -5 -12 -17 -27 -26 l-28 -18 24 27 c26 28 31 31 31 17z m-1190 -19 c0 -5 -7 -17 -16 -28 -8 -10 -14 -14 -11 -9 2 6 7 18 10 28 7 17 17 23 17 9z m1095 -72 c-16 -16 -33 -30 -39 -30 -5 0 6 14 24 30 18 17 36 30 39 30 2 0 -8 -13 -24 -30z m-1157 -55 c-6 -14 -13 -23 -15 -21 -5 5 15 46 22 46 3 0 -1 -11 -7 -25z m1102 11 c0 -2 -8 -10 -17 -17 -16 -13 -17 -12 -4 4 13 16 21 21 21 13z m-80 -74 c0 -5 -15 -19 -32 -32 l-33 -23 29 31 c31 34 36 37 36 24z m-107 -97 c-3 -9 -8 -14 -10 -11 -3 3 -2 9 2 15 9 16 15 13 8 -4z m-41 -47 c-7 -7 -12 -8 -12 -2 0 14 12 26 19 19 2 -3 -1 -11 -7 -17z m-42 -33 c-13 -14 -26 -23 -29 -20 -6 6 42 54 48 49 3 -2 -6 -15 -19 -29z m-934 -1 c-4 -9 -9 -15 -11 -12 -3 3 -3 13 1 22 4 9 9 15 11 12 3 -3 3 -13 -1 -22z m864 -57 c0 -2 -13 -16 -30 -32 -16 -16 -30 -26 -30 -22 0 3 12 18 27 32 27 24 33 28 33 22z m-912 -52 c-12 -24 -23 -43 -26 -41 -4 5 36 86 43 86 3 0 -5 -20 -17 -45z m812 -38 c0 -2 -12 -14 -27 -28 l-28 -24 24 28 c23 25 31 32 31 24z m-870 -102 c-16 -33 -29 -54 -30 -47 0 15 50 116 55 110 2 -2 -9 -31 -25 -63z m793 30 c-3 -9 -8 -14 -10 -11 -3 3 -2 9 2 15 9 16 15 13 8 -4z m-33 -28 c0 -2 -12 -14 -27 -28 l-28 -24 24 28 c23 25 31 32 31 24z m-160 -152 c-7 -9 -15 -13 -17 -11 -7 7 7 26 19 26 6 0 6 -6 -2 -15z m-30 -21 c0 -10 -61 -67 -66 -61 -3 3 7 19 23 35 27 29 43 39 43 26z m-85 -84 c-3 -5 -11 -10 -16 -10 -6 0 -7 5 -4 10 3 6 11 10 16 10 6 0 7 -4 4 -10z m-51 -44 c-6 -16 -24 -23 -24 -8 0 10 22 33 27 28 2 -2 1 -11 -3 -20z m-44 -41 c-7 -9 -15 -13 -18 -10 -3 2 1 11 8 20 7 9 15 13 18 10 3 -2 -1 -11 -8 -20z m-30 -25 c0 -5 -9 -14 -20 -20 -24 -13 -26 -7 -4 14 18 18 24 20 24 6z m-56 -55 c-6 -16 -24 -21 -24 -7 0 11 11 22 21 22 5 0 6 -7 3 -15z m-44 -40 c-7 -8 -17 -15 -22 -15 -6 0 -5 7 2 15 7 8 17 15 22 15 6 0 5 -7 -2 -15z m1010 -225 c0 -5 -3 -10 -7 -10 -5 0 -19 -3 -32 -7 -17 -4 -22 -3 -17 6 4 6 11 9 16 6 5 -3 11 -1 15 5 8 13 25 13 25 0z m-105 -30 c-3 -5 -16 -10 -28 -9 -20 1 -20 2 3 9 14 4 26 8 28 9 2 1 0 -3 -3 -9z m-58 -16 c-3 -3 -12 -4 -19 -1 -8 3 -5 6 6 6 11 1 17 -2 13 -5z m-62 -14 c-3 -5 -12 -10 -18 -10 -7 0 -6 4 3 10 19 12 23 12 15 0z m-35 -10 c0 -5 -2 -10 -4 -10 -3 0 -8 5 -11 10 -3 6 -1 10 4 10 6 0 11 -4 11 -10z m-390 -104 c0 -11 -19 -15 -25 -6 -3 5 1 10 9 10 9 0 16 -2 16 -4z m-65 -16 c-11 -5 -27 -9 -35 -9 -9 0 -8 4 5 9 11 5 27 9 35 9 9 0 8 -4 -5 -9z m-55 -10 c0 -5 -7 -10 -16 -10 -8 0 -12 5 -9 10 3 6 10 10 16 10 5 0 9 -4 9 -10z m-43 -16 c-3 -3 -12 -4 -19 -1 -8 3 -5 6 6 6 11 1 17 -2 13 -5z m-57 -12 c0 -4 -10 -9 -22 -9 -18 -2 -20 0 -8 7 18 12 30 13 30 2z m-65 -22 c-3 -5 -10 -10 -16 -10 -5 0 -9 5 -9 10 0 6 7 10 16 10 8 0 12 -4 9 -10z m-55 -14 c-14 -8 -41 -17 -60 -21 -28 -6 -33 -5 -23 5 7 7 29 16 50 20 56 11 61 11 33 -4z m-160 -40 c0 -9 -30 -14 -35 -6 -4 6 3 10 14 10 12 0 21 -2 21 -4z m-60 -16 c0 -5 -10 -10 -22 -10 -19 0 -20 2 -8 10 19 13 30 13 30 0z"/>
<path d="M19209 6367 c-14 -10 -15 -29 -9 -131 6 -113 7 -120 34 -142 35 -31 57 -30 95 2 27 23 31 32 31 77 0 62 -28 129 -73 175 -33 34 -52 39 -78 19z"/>
<path d="M20690 6309 c-12 -13 -29 -34 -37 -46 -14 -21 -13 -25 15 -57 35 -41 46 -71 66 -192 14 -79 21 -100 66 -167 52 -79 126 -140 199 -166 54 -18 58 -2 23 86 -17 43 -38 121 -47 173 -19 111 -40 157 -83 185 -21 13 -35 33 -42 58 -8 26 -16 37 -30 37 -25 0 -80 48 -95 83 l-12 29 -23 -23z m300 -599 c0 -5 -4 -10 -10 -10 -5 0 -10 5 -10 10 0 6 5 10 10 10 6 0 10 -4 10 -10z"/>
<path d="M21952 6223 c-6 -15 -13 -35 -14 -43 -2 -8 -9 -20 -15 -28 -7 -7 -17 -30 -23 -50 -8 -30 -18 -40 -49 -54 -31 -12 -50 -32 -85 -86 -44 -69 -80 -103 -124 -116 -12 -4 -36 -19 -52 -33 -25 -20 -30 -32 -30 -68 l0 -44 -69 6 c-66 5 -69 5 -86 -20 -15 -23 -16 -33 -5 -77 7 -27 25 -66 41 -86 16 -20 29 -48 29 -61 0 -22 29 -153 36 -162 2 -2 26 2 54 9 49 12 51 11 71 -13 15 -20 28 -26 57 -25 20 1 47 -2 60 -6 13 -5 22 -3 22 3 0 6 5 11 11 11 5 0 7 -5 4 -10 -3 -6 5 -14 19 -20 20 -7 26 -17 26 -40 0 -33 21 -40 53 -16 9 7 28 11 42 8 23 -4 25 -1 25 31 0 20 5 39 10 42 6 4 20 25 31 47 20 40 21 72 4 124 -5 17 3 28 44 57 49 36 62 59 41 72 -20 12 -9 24 40 40 59 20 62 32 21 92 -20 30 -33 69 -45 135 -9 51 -20 103 -23 116 -5 21 -3 22 20 17 35 -9 50 1 37 26 -9 16 -6 21 25 36 19 9 35 22 35 29 0 11 -95 74 -95 63 -1 -2 -25 23 -55 56 -30 33 -59 61 -66 63 -6 2 -16 -10 -22 -25z m53 -73 c3 -6 -1 -7 -9 -4 -18 7 -21 14 -7 14 6 0 13 -4 16 -10z"/>
<path d="M20350 6075 c-7 -8 -9 -26 -6 -42 7 -31 46 -95 46 -76 0 6 16 30 35 53 19 23 35 46 35 50 0 9 -55 30 -80 30 -10 0 -23 -7 -30 -15z"/>
<path d="M20463 6013 c-9 -16 -27 -40 -40 -54 l-23 -26 38 -44 c111 -128 182 -223 192 -258 12 -46 211 -379 275 -460 58 -74 120 -121 159 -121 17 0 41 -3 54 -6 l23 -7 -3 165 c-3 163 -3 165 17 152 11 -8 27 -14 36 -14 14 0 16 7 12 43 -8 60 -19 77 -51 77 -40 0 -66 -22 -59 -49 3 -12 0 -21 -6 -21 -7 0 -38 50 -70 110 -32 60 -67 116 -78 124 -13 9 -16 16 -10 21 17 10 13 25 -8 25 -10 0 -21 9 -24 20 -3 11 -11 20 -17 20 -7 0 -10 -7 -6 -15 11 -30 -18 -14 -58 31 -145 162 -304 314 -329 314 -4 0 -14 -12 -24 -27z"/>
<path d="M20390 5796 c0 -8 7 -17 16 -20 21 -8 26 -3 18 18 -8 20 -34 21 -34 2z"/>
<path d="M22630 5714 c-40 -43 -83 -56 -157 -48 -35 3 -70 13 -78 20 -47 47 -160 -55 -154 -139 1 -17 -1 -39 -4 -47 -3 -8 -23 -68 -43 -134 -36 -113 -37 -119 -19 -132 10 -7 23 -15 28 -17 8 -2 7 -26 -3 -76 -16 -84 -9 -104 37 -109 l29 -3 13 118 c21 204 26 220 51 173 8 -15 40 -221 40 -257 0 -6 56 -2 67 5 6 4 19 29 28 55 15 46 15 52 -4 110 -10 34 -22 80 -26 102 -4 22 -13 49 -20 61 -12 19 -11 22 21 38 20 9 40 14 45 10 17 -10 38 16 34 44 -2 25 -6 27 -40 25 -21 -2 -58 -12 -82 -24 l-45 -22 -26 20 c-30 22 -37 42 -28 78 10 38 52 48 175 40 121 -8 164 1 200 39 16 17 22 33 19 57 -4 43 -26 48 -58 13z"/>
<path d="M20490 5686 c0 -16 37 -46 57 -46 19 0 16 24 -5 43 -23 21 -52 22 -52 3z"/>
<path d="M21010 5595 c0 -8 7 -15 15 -15 8 0 15 7 15 15 0 8 -7 15 -15 15 -8 0 -15 -7 -15 -15z"/>
<path d="M21050 5546 c0 -8 7 -16 15 -20 10 -4 15 1 15 14 0 11 -7 20 -15 20 -8 0 -15 -6 -15 -14z"/>
<path d="M23222 5530 c-18 -11 -40 -20 -50 -20 -44 0 -55 -52 -22 -106 17 -27 29 -34 66 -40 l45 -6 -31 -19 c-17 -11 -37 -19 -45 -19 -21 0 -19 -8 15 -47 17 -19 30 -45 30 -61 0 -57 10 -73 43 -70 24 2 33 10 42 37 l11 33 11 -25 c7 -15 26 -33 43 -42 16 -8 30 -20 30 -26 0 -6 5 -7 10 -4 6 3 10 1 10 -5 0 -12 95 -59 120 -60 8 -1 34 -18 58 -40 38 -34 45 -48 58 -106 15 -73 13 -84 -17 -84 -28 0 -69 -44 -69 -75 0 -33 26 -43 62 -22 15 9 28 12 28 8 0 -5 13 -11 28 -14 18 -4 46 -26 77 -62 41 -49 52 -56 75 -52 19 4 29 0 38 -14 29 -46 122 4 122 65 0 18 -5 37 -12 44 -9 9 -7 12 10 12 11 0 36 16 55 35 62 64 106 39 173 -99 25 -50 57 -103 71 -118 30 -32 92 -64 151 -78 23 -6 42 -15 42 -20 0 -17 36 -11 53 8 25 28 21 49 -18 88 -19 19 -44 52 -55 74 -12 24 -27 40 -38 40 -18 0 -83 101 -117 183 -17 40 -15 43 35 49 36 4 36 31 0 71 -21 24 -46 39 -79 48 -44 11 -48 15 -59 55 -16 60 -56 90 -272 200 -102 53 -196 106 -210 119 -38 35 -92 65 -118 65 -15 0 -29 -11 -43 -35 -15 -25 -28 -35 -45 -35 -14 0 -24 -6 -24 -14 0 -20 -67 -89 -79 -82 -19 12 -63 110 -81 179 -28 106 -60 128 -128 87z m112 -166 c3 -8 2 -12 -4 -9 -6 3 -10 10 -10 16 0 14 7 11 14 -7z m46 -118 c-1 -6 -6 -1 -13 12 -7 12 -17 19 -22 15 -4 -4 -5 -2 0 6 7 12 10 11 22 -4 7 -11 13 -24 13 -29z m477 -448 c-3 -8 -6 -5 -6 6 -1 11 2 17 5 13 3 -3 4 -12 1 -19z"/>
<path d="M15303 5504 c-9 -23 11 -38 26 -20 13 16 7 36 -10 36 -5 0 -12 -7 -16 -16z"/>
<path d="M20604 5486 c-6 -17 2 -36 17 -36 12 0 12 37 -1 45 -6 3 -13 -1 -16 -9z"/>
<path d="M20672 5374 c1 -9 9 -19 16 -22 9 -3 13 2 10 14 -1 9 -9 19 -16 22 -9 3 -13 -2 -10 -14z"/>
<path d="M21255 5340 c-10 -16 15 -40 41 -40 19 0 24 5 24 25 0 21 -5 25 -29 25 -17 0 -33 -5 -36 -10z"/>
<path d="M15638 5263 c0 -32 -2 -62 -3 -68 -1 -10 -14 -172 -20 -255 -2 -25 -9 -123 -16 -218 -6 -95 -10 -174 -8 -176 2 -2 16 -6 32 -10 l27 -6 0 395 c0 217 -2 395 -5 395 -3 0 -6 -26 -7 -57z"/>
<path d="M24610 5240 c0 -11 4 -20 8 -20 24 0 97 -79 119 -128 24 -56 45 -64 52 -21 5 37 -26 83 -94 138 -68 55 -85 62 -85 31z"/>
<path d="M24647 5093 c-2 -5 -7 -20 -10 -34 -5 -21 -21 -31 -91 -58 -88 -34 -110 -56 -80 -78 42 -31 203 6 228 52 6 11 19 31 29 44 22 30 21 37 -3 61 -20 20 -65 27 -73 13z"/>
<path d="M21138 4980 c-34 -35 -33 -54 5 -58 15 -2 27 -7 27 -12 0 -4 12 -11 28 -14 67 -16 290 -85 406 -126 123 -43 168 -50 214 -35 29 10 37 18 37 37 0 19 -5 23 -27 21 -22 -1 -28 3 -28 17 0 24 -40 36 -68 21 -33 -18 -42 -13 -61 32 -33 75 -46 81 -179 82 -88 0 -124 4 -147 16 -16 9 -43 24 -60 33 -16 9 -49 16 -73 16 -35 0 -49 -6 -74 -30z m7 -40 c-3 -5 -10 -10 -16 -10 -5 0 -9 5 -9 10 0 6 7 10 16 10 8 0 12 -4 9 -10z"/>
<path d="M21703 4943 c-42 -8 -19 -33 31 -33 22 0 46 17 46 32 0 8 -37 9 -77 1z"/>
<path d="M22370 4774 c-34 -11 -50 -12 -66 -3 -41 21 -140 -29 -103 -52 21 -13 56 -11 135 10 83 21 94 27 94 47 0 16 -1 16 -60 -2z"/>
<path d="M16827 4569 c-20 -22 -51 -71 -71 -109 -20 -37 -42 -73 -51 -80 -8 -7 -15 -19 -15 -26 0 -8 -6 -14 -14 -14 -8 0 -16 -7 -20 -15 -6 -18 -73 -50 -135 -65 -52 -14 -87 -48 -96 -97 -4 -20 -4 -82 0 -137 7 -99 6 -102 -20 -141 -31 -45 -55 -106 -55 -141 l0 -24 135 0 c79 0 135 -4 135 -10 0 -5 -5 -21 -12 -35 -11 -25 -12 -25 -139 -25 l-128 0 6 -32 c3 -18 12 -40 19 -49 8 -8 14 -27 14 -41 0 -44 33 -63 109 -63 110 0 125 19 236 300 82 206 152 410 161 471 5 33 10 42 17 35 16 -16 47 -13 47 3 0 57 -26 185 -52 254 -17 45 -32 82 -34 82 -1 0 -18 -18 -37 -41z m-192 -559 c3 -6 -1 -7 -9 -4 -18 7 -21 14 -7 14 6 0 13 -4 16 -10z m50 -10 c3 -6 -1 -7 -9 -4 -18 7 -21 14 -7 14 6 0 13 -4 16 -10z m50 -10 c3 -5 2 -10 -4 -10 -5 0 -13 5 -16 10 -3 6 -2 10 4 10 5 0 13 -4 16 -10z m45 -11 c0 -4 -7 -6 -15 -3 -8 4 -15 10 -15 15 0 4 7 6 15 3 8 -4 15 -10 15 -15z m-384 -370 c3 -6 -5 -3 -20 6 -14 10 -26 19 -26 22 0 7 39 -17 46 -28z m132 -93 c9 -11 -4 -5 -30 13 -27 17 -48 34 -48 37 0 9 61 -30 78 -50z"/>
<path d="M22995 4440 c-10 -11 -24 -20 -32 -20 -7 0 -13 -4 -13 -10 0 -5 -1 -13 -2 -17 -2 -5 8 -9 22 -9 14 -1 38 -5 53 -9 24 -6 29 -4 34 14 6 24 18 26 52 7 23 -13 21 -14 -45 -35 -99 -30 -149 -61 -149 -91 0 -14 -12 -37 -27 -52 -30 -29 -37 -74 -18 -122 8 -23 7 -26 -12 -26 -12 0 -30 8 -41 17 -20 19 -22 18 -52 -32 -7 -12 -9 -2 -7 38 3 40 -2 68 -17 101 -17 39 -24 46 -48 46 -16 0 -33 -8 -40 -18 -6 -10 -36 -34 -67 -52 -31 -19 -59 -42 -62 -52 -3 -10 -13 -18 -23 -18 -9 0 -22 -5 -29 -12 -15 -15 -16 -54 -2 -63 26 -16 7 -25 -40 -19 l-50 7 -2 -59 c-1 -51 -2 -53 -5 -16 -5 48 -21 61 -58 44 -28 -13 -49 -50 -81 -144 -21 -64 -21 -72 7 -70 9 1 316 14 424 18 201 7 383 14 495 20 63 3 123 5 134 5 10 0 20 9 23 20 3 10 10 19 15 19 5 0 16 6 23 14 12 11 12 25 4 72 -5 33 -16 97 -24 144 -8 47 -19 112 -24 145 -6 33 -11 76 -11 95 0 32 -5 38 -50 63 -27 15 -58 39 -68 52 -15 19 -29 25 -59 25 -21 0 -44 -5 -51 -12 -9 -9 -12 -9 -12 0 0 19 -45 14 -65 -8z"/>
<path d="M23891 4431 c-30 -30 -58 -90 -81 -174 -19 -69 -19 -76 -5 -111 9 -21 14 -40 12 -43 -3 -2 -10 11 -17 29 -12 33 -12 33 -30 -54 -36 -172 -93 -303 -138 -315 -35 -9 -56 8 -162 127 -51 58 -95 107 -97 110 -5 5 5 -61 13 -91 3 -9 26 -30 53 -46 51 -32 53 -40 35 -116 -5 -23 -4 -26 12 -20 13 5 16 3 11 -9 -3 -9 4 -29 16 -46 32 -44 80 -105 95 -121 29 -30 44 -62 38 -78 -6 -14 -10 -11 -29 14 -35 48 -80 106 -104 133 -13 14 -23 29 -23 33 0 5 -9 5 -20 2 -11 -4 -20 -2 -20 4 0 6 5 11 10 11 16 0 12 14 -8 27 -17 10 -19 7 -20 -30 -1 -23 14 -134 32 -247 19 -113 31 -209 27 -213 -9 -9 -29 93 -56 273 -9 58 -20 127 -26 153 -5 27 -7 52 -4 57 3 4 -14 20 -38 33 -24 14 -49 32 -55 40 -13 15 -70 16 -357 2 -141 -6 -209 -9 -520 -20 -239 -9 -243 -9 -269 -34 -29 -27 -61 -36 -161 -45 -179 -16 -310 -58 -373 -119 -18 -17 -40 -32 -50 -32 -22 0 -68 -110 -102 -250 -23 -95 -30 -110 -48 -113 -20 -3 -22 -10 -22 -60 0 -31 9 -108 21 -171 22 -113 22 -115 4 -207 -18 -90 -18 -94 0 -134 11 -25 52 -72 108 -123 50 -45 102 -93 117 -107 88 -82 96 -87 128 -82 18 2 61 -1 97 -8 77 -15 105 -2 130 56 17 42 70 68 160 79 l60 8 -75 23 c-41 13 -83 28 -92 34 -10 5 -26 10 -37 10 -10 0 -29 9 -42 20 l-24 19 45 -14 c25 -7 88 -28 140 -45 167 -56 187 -58 296 -30 93 23 117 21 175 -21 16 -11 42 -24 57 -28 33 -9 52 -43 52 -97 0 -24 10 -60 25 -88 28 -53 32 -91 10 -100 -20 -7 -19 -29 3 -49 28 -26 47 -20 60 16 14 38 38 61 145 141 49 36 74 50 68 37 -6 -11 -20 -25 -31 -31 -11 -6 -24 -29 -31 -53 -7 -29 -27 -58 -65 -95 -30 -29 -54 -57 -54 -62 0 -20 59 -9 89 16 l31 26 -10 -27 c-16 -43 -12 -73 11 -80 17 -6 20 -13 15 -38 -16 -89 -18 -121 -11 -172 5 -46 14 -65 43 -97 55 -61 104 -82 188 -83 56 0 76 4 92 18 20 19 21 18 32 -25 24 -90 35 -94 120 -39 66 43 115 61 165 61 67 0 123 58 235 245 79 132 119 188 225 316 144 173 258 374 290 511 20 88 19 327 -3 335 -7 3 -23 26 -33 51 -11 24 -29 58 -41 74 -19 28 -20 31 -5 40 29 16 20 66 -19 117 -2 2 -10 -2 -19 -9 -13 -11 -15 -4 -15 62 0 41 -5 90 -11 109 -17 49 -57 99 -89 111 -44 15 -60 68 -60 196 -1 163 -17 361 -30 377 -7 8 -25 15 -40 15 l-27 0 -6 128 c-8 191 -35 254 -86 203z m-51 -374 c0 -18 -2 -19 -10 -7 -13 20 -13 43 0 35 6 -3 10 -16 10 -28z m18 -52 c-3 -3 -9 2 -12 12 -6 14 -5 15 5 6 7 -7 10 -15 7 -18z m-2362 -1346 c8 -14 -10 -11 -32 6 -18 13 -18 14 4 8 12 -3 25 -9 28 -14z m61 -25 c-7 -7 -37 7 -37 17 0 6 9 5 21 -1 11 -7 19 -14 16 -16z m73 -19 c14 -8 21 -14 15 -14 -5 0 -21 6 -35 14 -14 8 -20 14 -15 14 6 0 21 -6 35 -14z m89 -31 c14 -12 -19 -1 -35 12 -18 14 -18 14 6 3 14 -6 27 -13 29 -15z m67 -19 c24 -18 7 -19 -26 0 -16 9 -19 14 -9 15 8 0 24 -7 35 -15z m89 -35 c3 -6 -1 -7 -9 -4 -18 7 -21 14 -7 14 6 0 13 -4 16 -10z m61 -15 c10 -8 14 -15 8 -15 -5 0 -19 7 -30 15 -10 8 -14 15 -8 15 5 0 19 -7 30 -15z m834 -275 c8 -5 12 -11 9 -14 -3 -3 -14 1 -25 9 -21 16 -8 20 16 5z m50 -20 c0 -5 -2 -10 -4 -10 -3 0 -8 5 -11 10 -3 6 -1 10 4 10 6 0 11 -4 11 -10z m75 -20 c3 -5 -1 -10 -9 -10 -8 0 -18 5 -21 10 -3 6 1 10 9 10 8 0 18 -4 21 -10z"/>
<path d="M23401 4346 c-8 -9 -22 -11 -51 -6 -38 7 -39 6 -34 -17 4 -13 15 -70 24 -126 10 -56 19 -94 19 -85 1 15 54 98 114 180 20 27 20 28 2 48 -21 23 -57 26 -74 6z"/>
<path d="M15503 4340 c-37 -15 -65 -69 -59 -114 7 -58 44 -91 103 -91 28 0 48 5 51 13 2 6 9 12 16 12 18 0 36 44 36 89 0 42 -36 91 -67 91 -10 0 -27 2 -38 5 -11 2 -30 0 -42 -5z"/>
<path d="M7847 2914 c3 -22 10 -43 15 -49 6 -7 9 -7 8 0 -2 6 -1 12 0 15 9 23 5 41 -11 55 -17 17 -18 16 -12 -21z"/>
<path d="M21421 2493 c-22 -42 -16 -71 30 -144 25 -41 55 -89 65 -107 22 -38 41 -37 105 5 27 18 47 24 66 20 29 -5 29 -6 -160 166 -86 78 -94 82 -106 60z"/>
<path d="M21348 2355 c-21 -18 -38 -39 -38 -46 0 -6 17 -28 38 -49 36 -37 91 -60 141 -60 23 0 23 1 7 23 -9 12 -19 29 -23 37 -7 16 -82 130 -86 130 -1 0 -19 -16 -39 -35z"/>
<path d="M7840 2188 c0 -24 5 -50 10 -58 7 -11 10 2 10 43 0 31 -4 57 -10 57 -5 0 -10 -19 -10 -42z"/>
<path d="M23157 1293 c-4 -3 -7 -37 -7 -76 0 -54 -4 -74 -20 -94 -25 -32 -25 -79 -1 -119 11 -18 21 -45 23 -60 4 -38 26 -40 73 -9 27 19 40 23 45 14 11 -17 26 -4 55 45 36 62 108 257 98 267 -4 4 -28 -1 -52 -11 -24 -11 -47 -20 -52 -20 -4 0 -34 16 -66 35 -57 34 -83 42 -96 28z"/>
<path d="M8636 570 c-20 -22 -35 -44 -31 -50 3 -5 -1 -10 -9 -10 -17 0 -67 -46 -58 -54 3 -3 24 -6 46 -6 33 -1 37 -3 24 -11 -19 -11 -25 -59 -7 -59 6 0 19 5 30 11 16 8 25 7 40 -7 18 -16 20 -16 39 1 22 20 18 35 -10 35 -13 0 -17 5 -13 20 6 23 43 27 43 5 0 -8 9 -15 20 -15 13 0 20 7 20 20 0 13 9 22 25 26 35 9 51 30 35 49 -7 8 -22 15 -34 15 -19 0 -49 16 -102 55 -19 14 -22 12 -58 -25z"/>
<path d="M8430 511 c0 -5 12 -19 26 -30 l26 -20 24 26 c13 14 24 28 24 29 0 2 -22 4 -50 4 -27 0 -50 -4 -50 -9z"/>
</g>
</svg>